FiraMono-Bold.ufo
<glyph name="slash" format="2">
  <advance width="600"/>
  <unicode hex="002F"/>
  <outline>
    <contour>
      <point x="153" y="-112" type="line"/>
      <point x="572" y="760" type="line"/>
      <point x="448" y="817" type="line"/>
      <point x="28" y="-55" type="line"/>
    </contour>
  </outline>
</glyph>
<glyph name="A" format="2">
  <advance width="600"/>
  <unicode hex="0041"/>
  <anchor x="299" y="0" name="bottom"/>
  <anchor x="543" y="0" name="ogonek"/>
  <anchor x="300" y="693" name="top"/>
  <anchor x="180" y="693" name="topleft"/>
  <outline>
    <contour>
      <point x="399" y="149" type="line"/>
      <point x="435" y="0" type="line"/>
      <point x="613" y="0" type="line"/>
      <point x="401" y="693" type="line"/>
      <point x="200" y="693" type="line"/>
      <point x="-12" y="0" type="line"/>
      <point x="162" y="0" type="line"/>
      <point x="198" y="149" type="line"/>
    </contour>
    <contour>
      <point x="224" y="269" type="line"/>
      <point x="298" y="574" type="line"/>
      <point x="372" y="269" type="line"/>
    </contour>
  </outline>
</glyph>
<glyph name="D" format="2">
  <advance width="600"/>
  <unicode hex="0044"/>
  <anchor x="300" y="0" name="bottom"/>
  <anchor x="300" y="347" name="center"/>
  <anchor x="287" y="693" name="top"/>
  <outline>
    <contour>
      <point x="403" y="350" type="curve" smooth="yes"/>
      <point x="403" y="169"/>
      <point x="342" y="120"/>
      <point x="251" y="120" type="curve" smooth="yes"/>
      <point x="217" y="120" type="line"/>
      <point x="217" y="573" type="line"/>
      <point x="251" y="573" type="line" smooth="yes"/>
      <point x="338" y="573"/>
      <point x="403" y="535"/>
    </contour>
    <contour>
      <point x="575" y="350" type="curve" smooth="yes"/>
      <point x="575" y="636"/>
      <point x="405" y="693"/>
      <point x="227" y="693" type="curve" smooth="yes"/>
      <point x="51" y="693" type="line"/>
      <point x="51" y="0" type="line"/>
      <point x="239" y="0" type="line" smooth="yes"/>
      <point x="412" y="0"/>
      <point x="575" y="68"/>
    </contour>
  </outline>
</glyph>
<glyph name="H" format="2">
  <advance width="600"/>
  <unicode hex="0048"/>
  <anchor x="300" y="0" name="bottom"/>
  <anchor x="559" y="0" name="bottomright"/>
  <anchor x="300" y="347" name="center"/>
  <anchor x="300" y="693" name="top"/>
  <anchor x="41" y="693" name="topleft"/>
  <outline>
    <contour>
      <point x="383" y="0" type="line"/>
      <point x="549" y="0" type="line"/>
      <point x="549" y="693" type="line"/>
      <point x="383" y="693" type="line"/>
      <point x="383" y="428" type="line"/>
      <point x="217" y="428" type="line"/>
      <point x="217" y="693" type="line"/>
      <point x="51" y="693" type="line"/>
      <point x="51" y="0" type="line"/>
      <point x="217" y="0" type="line"/>
      <point x="217" y="291" type="line"/>
      <point x="383" y="291" type="line"/>
    </contour>
  </outline>
</glyph>
<glyph name="I" format="2">
  <advance width="600"/>
  <unicode hex="0049"/>
  <anchor x="300" y="0" name="bottom"/>
  <anchor x="393" y="0" name="ogonek"/>
  <anchor x="300" y="693" name="top"/>
  <anchor x="64" y="693" name="topleft"/>
  <outline>
    <contour>
      <point x="526" y="693" type="line"/>
      <point x="74" y="693" type="line"/>
      <point x="74" y="572" type="line"/>
      <point x="217" y="572" type="line"/>
      <point x="217" y="122" type="line"/>
      <point x="74" y="122" type="line"/>
      <point x="74" y="0" type="line"/>
      <point x="526" y="0" type="line"/>
      <point x="526" y="122" type="line"/>
      <point x="383" y="122" type="line"/>
      <point x="383" y="572" type="line"/>
      <point x="526" y="572" type="line"/>
    </contour>
  </outline>
</glyph>
<glyph name="K" format="2">
  <advance width="600"/>
  <unicode hex="004B"/>
  <anchor x="300" y="0" name="bottom"/>
  <anchor x="300" y="693" name="top"/>
  <outline>
    <contour>
      <point x="224" y="0" type="line"/>
      <point x="224" y="693" type="line"/>
      <point x="58" y="693" type="line"/>
      <point x="58" y="0" type="line"/>
    </contour>
    <contour>
      <point x="229" y="370" type="line"/>
      <point x="417" y="0" type="line"/>
      <point x="609" y="0" type="line"/>
      <point x="396" y="382" type="line"/>
      <point x="590" y="693" type="line"/>
      <point x="416" y="693" type="line"/>
    </contour>
  </outline>
</glyph>
<glyph name="L" format="2">
  <advance width="600"/>
  <unicode hex="004C"/>
  <anchor x="317" y="0" name="bottom"/>
  <anchor x="466" y="385" name="center"/>
  <anchor x="175" y="693" name="top"/>
  <anchor x="308" y="693" name="topright"/>
  <outline>
    <contour>
      <point x="92" y="0" type="line"/>
      <point x="541" y="0" type="line"/>
      <point x="558" y="131" type="line"/>
      <point x="258" y="131" type="line"/>
      <point x="258" y="693" type="line"/>
      <point x="92" y="693" type="line"/>
    </contour>
  </outline>
</glyph>
<glyph name="P" format="2">
  <advance width="600"/>
  <unicode hex="0050"/>
  <anchor x="300" y="0" name="bottom"/>
  <anchor x="300" y="693" name="top"/>
  <anchor x="51" y="693" name="topleft"/>
  <outline>
    <contour>
      <point x="406" y="467" type="curve" smooth="yes"/>
      <point x="406" y="386"/>
      <point x="363" y="350"/>
      <point x="291" y="350" type="curve" smooth="yes"/>
      <point x="227" y="350" type="line"/>
      <point x="227" y="575" type="line"/>
      <point x="282" y="575" type="line" smooth="yes"/>
      <point x="365" y="575"/>
      <point x="406" y="540"/>
    </contour>
    <contour>
      <point x="577" y="467" type="curve" smooth="yes"/>
      <point x="577" y="619"/>
      <point x="469" y="693"/>
      <point x="280" y="693" type="curve" smooth="yes"/>
      <point x="61" y="693" type="line"/>
      <point x="61" y="0" type="line"/>
      <point x="227" y="0" type="line"/>
      <point x="227" y="230" type="line"/>
      <point x="302" y="230" type="line" smooth="yes"/>
      <point x="466" y="230"/>
      <point x="577" y="306"/>
    </contour>
  </outline>
</glyph>
<glyph name="R" format="2">
  <advance width="600"/>
  <unicode hex="0052"/>
  <anchor x="310" y="0" name="bottom"/>
  <anchor x="300" y="693" name="top"/>
  <outline>
    <contour>
      <point x="562" y="482" type="curve" smooth="yes"/>
      <point x="562" y="626"/>
      <point x="465" y="693"/>
      <point x="276" y="693" type="curve" smooth="yes"/>
      <point x="57" y="693" type="line"/>
      <point x="57" y="0" type="line"/>
      <point x="223" y="0" type="line"/>
      <point x="223" y="264" type="line"/>
      <point x="268" y="264" type="line"/>
      <point x="417" y="0" type="line"/>
      <point x="605" y="0" type="line"/>
      <point x="424" y="292" type="line"/>
      <point x="501" y="323"/>
      <point x="562" y="383"/>
    </contour>
    <contour>
      <point x="391" y="482" type="curve" smooth="yes"/>
      <point x="391" y="409"/>
      <point x="353" y="378"/>
      <point x="283" y="378" type="curve" smooth="yes"/>
      <point x="223" y="378" type="line"/>
      <point x="223" y="577" type="line"/>
      <point x="276" y="577" type="line" smooth="yes"/>
      <point x="352" y="577"/>
      <point x="391" y="548"/>
    </contour>
  </outline>
</glyph>
<glyph name="T" format="2">
  <advance width="600"/>
  <unicode hex="0054"/>
  <anchor x="299" y="0" name="bottom"/>
  <anchor x="392" y="0" name="bottomright"/>
  <anchor x="300" y="347" name="center"/>
  <anchor x="299" y="693" name="top"/>
  <outline>
    <contour>
      <point x="382" y="566" type="line"/>
      <point x="567" y="566" type="line"/>
      <point x="584" y="693" type="line"/>
      <point x="22" y="693" type="line"/>
      <point x="22" y="566" type="line"/>
      <point x="216" y="566" type="line"/>
      <point x="216" y="0" type="line"/>
      <point x="382" y="0" type="line"/>
    </contour>
  </outline>
</glyph>
<glyph name="U" format="2">
  <advance width="600"/>
  <unicode hex="0055"/>
  <anchor x="300" y="0" name="bottom"/>
  <anchor x="416" y="0" name="ogonek"/>
  <anchor x="300" y="693" name="top"/>
  <outline>
    <contour>
      <point x="559" y="693" type="line"/>
      <point x="392" y="693" type="line"/>
      <point x="392" y="295" type="line" smooth="yes"/>
      <point x="392" y="170"/>
      <point x="379" y="106"/>
      <point x="300" y="106" type="curve" smooth="yes"/>
      <point x="221" y="106"/>
      <point x="208" y="170"/>
      <point x="208" y="295" type="curve" smooth="yes"/>
      <point x="208" y="693" type="line"/>
      <point x="41" y="693" type="line"/>
      <point x="41" y="232" type="line" smooth="yes"/>
      <point x="41" y="84"/>
      <point x="126" y="-17"/>
      <point x="300" y="-17" type="curve" smooth="yes"/>
      <point x="473" y="-17"/>
      <point x="559" y="90"/>
      <point x="559" y="232" type="curve" smooth="yes"/>
    </contour>
  </outline>
</glyph>
<glyph name="V" format="2">
  <advance width="600"/>
  <unicode hex="0056"/>
  <anchor x="300" y="0" name="bottom"/>
  <anchor x="300" y="693" name="top"/>
  <outline>
    <contour>
      <point x="303" y="129" type="line"/>
      <point x="175" y="693" type="line"/>
      <point x="-1" y="693" type="line"/>
      <point x="197" y="0" type="line"/>
      <point x="403" y="0" type="line"/>
      <point x="602" y="693" type="line"/>
      <point x="432" y="693" type="line"/>
    </contour>
  </outline>
</glyph>
<glyph name="Y" format="2">
  <advance width="600"/>
  <unicode hex="0059"/>
  <anchor x="300" y="0" name="bottom"/>
  <anchor x="300" y="693" name="top"/>
  <anchor x="-9" y="693" name="topleft"/>
  <outline>
    <contour>
      <point x="383" y="260" type="line"/>
      <point x="609" y="693" type="line"/>
      <point x="434" y="693" type="line"/>
      <point x="303" y="396" type="line"/>
      <point x="173" y="693" type="line"/>
      <point x="-9" y="693" type="line"/>
      <point x="217" y="259" type="line"/>
      <point x="217" y="0" type="line"/>
      <point x="383" y="0" type="line"/>
    </contour>
  </outline>
</glyph>
<glyph name="Z" format="2">
  <advance width="600"/>
  <unicode hex="005A"/>
  <anchor x="300" y="0" name="bottom"/>
  <anchor x="313" y="693" name="top"/>
  <outline>
    <contour>
      <point x="234" y="132" type="line"/>
      <point x="555" y="568" type="line"/>
      <point x="555" y="693" type="line"/>
      <point x="74" y="693" type="line"/>
      <point x="74" y="565" type="line"/>
      <point x="366" y="565" type="line"/>
      <point x="38" y="124" type="line"/>
      <point x="38" y="0" type="line"/>
      <point x="546" y="0" type="line"/>
      <point x="563" y="132" type="line"/>
    </contour>
  </outline>
</glyph>
<glyph name="grave" format="2">
  <advance width="600"/>
  <unicode hex="0060"/>
  <anchor x="300" y="531" name="_top"/>
  <outline>
    <contour>
      <point x="399" y="622" type="line"/>
      <point x="443" y="703" type="line"/>
      <point x="224" y="836" type="line"/>
      <point x="162" y="716" type="line"/>
    </contour>
  </outline>
</glyph>
<glyph name="h" format="2">
  <advance width="600"/>
  <unicode hex="0068"/>
  <anchor x="300" y="0" name="bottom"/>
  <anchor x="300" y="266" name="center"/>
  <anchor x="300" y="742" name="top"/>
  <outline>
    <contour>
      <point x="229" y="758" type="line"/>
      <point x="69" y="742" type="line"/>
      <point x="69" y="0" type="line"/>
      <point x="229" y="0" type="line"/>
      <point x="229" y="367" type="line"/>
      <point x="259" y="407"/>
      <point x="288" y="431"/>
      <point x="321" y="431" type="curve" smooth="yes"/>
      <point x="359" y="431"/>
      <point x="371" y="409"/>
      <point x="371" y="345" type="curve" smooth="yes"/>
      <point x="371" y="0" type="line"/>
      <point x="531" y="0" type="line"/>
      <point x="531" y="390" type="line" smooth="yes"/>
      <point x="531" y="491"/>
      <point x="479" y="549"/>
      <point x="385" y="549" type="curve" smooth="yes"/>
      <point x="326" y="549"/>
      <point x="274" y="526"/>
      <point x="229" y="479" type="curve"/>
    </contour>
  </outline>
</glyph>
<glyph name="i" format="2">
  <advance width="600"/>
  <unicode hex="0069"/>
  <anchor x="300" y="0" name="bottom"/>
  <outline>
    <contour>
      <point x="395" y="531" type="line"/>
      <point x="90" y="531" type="line"/>
      <point x="90" y="422" type="line"/>
      <point x="235" y="422" type="line"/>
      <point x="235" y="109" type="line"/>
      <point x="85" y="109" type="line"/>
      <point x="85" y="0" type="line"/>
      <point x="530" y="0" type="line"/>
      <point x="530" y="109" type="line"/>
      <point x="395" y="109" type="line"/>
    </contour>
    <contour>
      <point x="299" y="810" type="curve" smooth="yes"/>
      <point x="243" y="810"/>
      <point x="204" y="771"/>
      <point x="204" y="720" type="curve" smooth="yes"/>
      <point x="204" y="669"/>
      <point x="243" y="630"/>
      <point x="299" y="630" type="curve" smooth="yes"/>
      <point x="354" y="630"/>
      <point x="393" y="669"/>
      <point x="393" y="720" type="curve" smooth="yes"/>
      <point x="393" y="771"/>
      <point x="354" y="810"/>
    </contour>
  </outline>
</glyph>
<glyph name="j" format="2">
  <advance width="600"/>
  <unicode hex="006A"/>
  <anchor x="300" y="-222" name="bottom "/>
  <anchor x="370" y="531" name="top"/>
  <outline>
    <contour>
      <point x="473" y="531" type="line"/>
      <point x="123" y="531" type="line"/>
      <point x="123" y="422" type="line"/>
      <point x="313" y="422" type="line"/>
      <point x="313" y="146" type="line" smooth="yes"/>
      <point x="313" y="-9"/>
      <point x="230" y="-63"/>
      <point x="69" y="-100" type="curve"/>
      <point x="94" y="-222" type="line"/>
      <point x="343" y="-173"/>
      <point x="473" y="-76"/>
      <point x="473" y="156" type="curve" smooth="yes"/>
    </contour>
    <contour>
      <point x="370" y="810" type="curve" smooth="yes"/>
      <point x="314" y="810"/>
      <point x="275" y="771"/>
      <point x="275" y="720" type="curve" smooth="yes"/>
      <point x="275" y="669"/>
      <point x="314" y="630"/>
      <point x="370" y="630" type="curve" smooth="yes"/>
      <point x="425" y="630"/>
      <point x="464" y="669"/>
      <point x="464" y="720" type="curve" smooth="yes"/>
      <point x="464" y="771"/>
      <point x="425" y="810"/>
    </contour>
  </outline>
</glyph>
<glyph name="l" format="2">
  <advance width="600"/>
  <unicode hex="006C"/>
  <anchor x="355" y="0" name="bottom"/>
  <anchor x="568" y="383" name="center"/>
  <anchor x="256" y="742" name="top"/>
  <anchor x="378" y="742" name="topright"/>
  <outline>
    <contour>
      <point x="348" y="742" type="line"/>
      <point x="32" y="742" type="line"/>
      <point x="32" y="633" type="line"/>
      <point x="188" y="633" type="line"/>
      <point x="188" y="188" type="line" smooth="yes"/>
      <point x="188" y="63"/>
      <point x="246" y="-17"/>
      <point x="375" y="-17" type="curve" smooth="yes"/>
      <point x="443" y="-17"/>
      <point x="493" y="-1"/>
      <point x="529" y="18" type="curve"/>
      <point x="491" y="125" type="line"/>
      <point x="469" y="116"/>
      <point x="443" y="109"/>
      <point x="416" y="109" type="curve" smooth="yes"/>
      <point x="374" y="109"/>
      <point x="348" y="125"/>
      <point x="348" y="168" type="curve" smooth="yes"/>
    </contour>
  </outline>
</glyph>
<glyph name="t" format="2">
  <advance width="600"/>
  <unicode hex="0074"/>
  <anchor x="360" y="0" name="bottom"/>
  <anchor x="300" y="266" name="center"/>
  <anchor x="248" y="652" name="top"/>
  <anchor x="355" y="812" name="topright"/>
  <outline>
    <contour>
      <point x="549" y="31" type="curve"/>
      <point x="496" y="133" type="line"/>
      <point x="471" y="119"/>
      <point x="440" y="109"/>
      <point x="403" y="109" type="curve" smooth="yes"/>
      <point x="351" y="109"/>
      <point x="328" y="129"/>
      <point x="328" y="182" type="curve" smooth="yes"/>
      <point x="328" y="421" type="line"/>
      <point x="483" y="421" type="line"/>
      <point x="499" y="531" type="line"/>
      <point x="328" y="531" type="line"/>
      <point x="328" y="665" type="line"/>
      <point x="168" y="646" type="line"/>
      <point x="168" y="531" type="line"/>
      <point x="57" y="531" type="line"/>
      <point x="57" y="421" type="line"/>
      <point x="168" y="421" type="line"/>
      <point x="168" y="182" type="line" smooth="yes"/>
      <point x="168" y="59"/>
      <point x="234" y="-17"/>
      <point x="374" y="-17" type="curve" smooth="yes"/>
      <point x="448" y="-17"/>
      <point x="507" y="4"/>
    </contour>
  </outline>
</glyph>
<glyph name="v" format="2">
  <advance width="600"/>
  <unicode hex="0076"/>
  <anchor x="300" y="0" name="bottom"/>
  <anchor x="300" y="531" name="top"/>
  <outline>
    <contour>
      <point x="572" y="531" type="line"/>
      <point x="410" y="531" type="line"/>
      <point x="303" y="122" type="line"/>
      <point x="201" y="531" type="line"/>
      <point x="28" y="531" type="line"/>
      <point x="207" y="0" type="line"/>
      <point x="395" y="0" type="line"/>
    </contour>
  </outline>
</glyph>
<glyph name="w" format="2">
  <advance width="600"/>
  <unicode hex="0077"/>
  <anchor x="300" y="0" name="bottom"/>
  <anchor x="300" y="531" name="top"/>
  <outline>
    <contour>
      <point x="522" y="0" type="line"/>
      <point x="597" y="531" type="line"/>
      <point x="456" y="531" type="line"/>
      <point x="421" y="100" type="line"/>
      <point x="372" y="464" type="line"/>
      <point x="238" y="464" type="line"/>
      <point x="183" y="100" type="line"/>
      <point x="149" y="531" type="line"/>
      <point x="3" y="531" type="line"/>
      <point x="81" y="0" type="line"/>
      <point x="254" y="0" type="line"/>
      <point x="301" y="356" type="line"/>
      <point x="346" y="0" type="line"/>
    </contour>
  </outline>
</glyph>
<glyph name="x" format="2">
  <advance width="600"/>
  <unicode hex="0078"/>
  <anchor x="300" y="0" name="bottom"/>
  <anchor x="519" y="0" name="bottomright"/>
  <anchor x="300" y="531" name="top"/>
  <outline>
    <contour>
      <point x="194" y="0" type="line"/>
      <point x="294" y="198" type="line"/>
      <point x="398" y="0" type="line"/>
      <point x="579" y="0" type="line"/>
      <point x="396" y="285" type="line"/>
      <point x="552" y="531" type="line"/>
      <point x="382" y="531" type="line"/>
      <point x="301" y="362" type="line"/>
      <point x="217" y="531" type="line"/>
      <point x="38" y="531" type="line"/>
      <point x="203" y="279" type="line"/>
      <point x="21" y="0" type="line"/>
    </contour>
  </outline>
</glyph>
<glyph name="z" format="2">
  <advance width="600"/>
  <unicode hex="007A"/>
  <anchor x="300" y="0" name="bottom"/>
  <anchor x="307" y="531" name="top"/>
  <outline>
    <contour>
      <point x="260" y="121" type="line"/>
      <point x="520" y="419" type="line"/>
      <point x="520" y="531" type="line"/>
      <point x="93" y="531" type="line"/>
      <point x="93" y="411" type="line"/>
      <point x="334" y="411" type="line"/>
      <point x="71" y="113" type="line"/>
      <point x="71" y="0" type="line"/>
      <point x="510" y="0" type="line"/>
      <point x="525" y="121" type="line"/>
    </contour>
  </outline>
</glyph>
<glyph name="dieresis" format="2">
  <advance width="600"/>
  <unicode hex="00A8"/>
  <anchor x="300" y="531" name="_top"/>
  <anchor x="300" y="718" name="top"/>
  <outline>
    <contour>
      <point x="184" y="637" type="curve" smooth="yes"/>
      <point x="231" y="637"/>
      <point x="267" y="672"/>
      <point x="267" y="718" type="curve" smooth="yes"/>
      <point x="267" y="763"/>
      <point x="231" y="798"/>
      <point x="184" y="798" type="curve" smooth="yes"/>
      <point x="138" y="798"/>
      <point x="101" y="763"/>
      <point x="101" y="718" type="curve" smooth="yes"/>
      <point x="101" y="672"/>
      <point x="138" y="637"/>
    </contour>
    <contour>
      <point x="416" y="637" type="curve" smooth="yes"/>
      <point x="463" y="637"/>
      <point x="499" y="672"/>
      <point x="499" y="718" type="curve" smooth="yes"/>
      <point x="499" y="763"/>
      <point x="463" y="798"/>
      <point x="416" y="798" type="curve" smooth="yes"/>
      <point x="371" y="798"/>
      <point x="333" y="763"/>
      <point x="333" y="718" type="curve" smooth="yes"/>
      <point x="333" y="672"/>
      <point x="371" y="637"/>
    </contour>
  </outline>
</glyph>
<glyph name="softhyphen" format="2">
  <advance width="600"/>
  <unicode hex="00AD"/>
  <outline>
    <contour>
      <point x="135" y="251" type="line"/>
      <point x="465" y="251" type="line"/>
      <point x="465" y="375" type="line"/>
      <point x="135" y="375" type="line"/>
    </contour>
  </outline>
</glyph>
<glyph name="macron" format="2">
  <advance width="600"/>
  <unicode hex="00AF"/>
  <anchor x="300" y="531" name="_top"/>
  <outline>
    <contour>
      <point x="453" y="657" type="line"/>
      <point x="453" y="768" type="line"/>
      <point x="147" y="768" type="line"/>
      <point x="147" y="657" type="line"/>
    </contour>
  </outline>
</glyph>
<glyph name="acute" format="2">
  <advance width="600"/>
  <unicode hex="00B4"/>
  <anchor x="300" y="531" name="_top"/>
  <outline>
    <contour>
      <point x="376" y="836" type="line"/>
      <point x="157" y="703" type="line"/>
      <point x="201" y="622" type="line"/>
      <point x="438" y="716" type="line"/>
    </contour>
  </outline>
</glyph>
<glyph name="dcroat" format="2">
  <advance width="600"/>
  <unicode hex="0111"/>
  <anchor x="281" y="0" name="bottom"/>
  <anchor x="281" y="266" name="center"/>
  <anchor x="281" y="742" name="top"/>
  <anchor x="532" y="742" name="topright"/>
  <outline>
    <contour>
      <point x="512" y="686" type="line"/>
      <point x="231" y="686" type="line"/>
      <point x="231" y="593" type="line"/>
      <point x="352" y="593" type="line"/>
      <point x="592" y="593" type="line"/>
      <point x="592" y="686" type="line"/>
    </contour>
    <component base="d" xOffset="-19"/>
  </outline>
</glyph>
<glyph name="Lslash" format="2">
  <advance width="600"/>
  <unicode hex="0141"/>
  <anchor x="332" y="0" name="bottom"/>
  <anchor x="481" y="385" name="center"/>
  <anchor x="190" y="693" name="top"/>
  <anchor x="323" y="693" name="topright"/>
  <outline>
    <contour>
      <point x="62" y="200" type="line"/>
      <point x="451" y="442" type="line"/>
      <point x="396" y="528" type="line"/>
      <point x="107" y="349" type="line"/>
      <point x="8" y="288" type="line"/>
    </contour>
    <component base="L" xOffset="15"/>
  </outline>
</glyph>
<glyph name="lslash" format="2">
  <advance width="600"/>
  <unicode hex="0142"/>
  <anchor x="355" y="0" name="bottom"/>
  <anchor x="568" y="383" name="center"/>
  <anchor x="256" y="742" name="top"/>
  <anchor x="378" y="742" name="topright"/>
  <outline>
    <contour>
      <point x="188" y="380" type="line"/>
      <point x="88" y="319" type="line"/>
      <point x="144" y="230" type="line"/>
      <point x="348" y="354" type="line"/>
      <point x="469" y="428" type="line"/>
      <point x="412" y="518" type="line"/>
    </contour>
    <component base="l"/>
  </outline>
</glyph>
<glyph name="napostrophe" format="2">
  <advance width="600"/>
  <unicode hex="0149"/>
  <anchor x="321" y="0" name="bottom"/>
  <anchor x="321" y="531" name="top"/>
  <outline>
    <contour>
      <point x="59" y="764" type="curve" smooth="yes"/>
      <point x="15" y="764"/>
      <point x="-18" y="729"/>
      <point x="-18" y="689" type="curve" smooth="yes"/>
      <point x="-18" y="660"/>
      <point x="-4" y="640"/>
      <point x="14" y="626" type="curve"/>
      <point x="-7" y="535" type="line"/>
      <point x="72" y="535" type="line"/>
      <point x="113" y="615" type="line" smooth="yes"/>
      <point x="128" y="644"/>
      <point x="136" y="663"/>
      <point x="136" y="689" type="curve" smooth="yes"/>
      <point x="136" y="732"/>
      <point x="103" y="764"/>
    </contour>
    <component base="n" xOffset="20"/>
  </outline>
</glyph>
<glyph name="Tbar" format="2">
  <advance width="600"/>
  <unicode hex="0166"/>
  <anchor x="299" y="0" name="bottom"/>
  <anchor x="392" y="0" name="bottomright"/>
  <anchor x="300" y="347" name="center"/>
  <anchor x="299" y="693" name="top"/>
  <outline>
    <contour>
      <point x="382" y="313" type="line"/>
      <point x="499" y="313" type="line"/>
      <point x="499" y="406" type="line"/>
      <point x="216" y="406" type="line"/>
      <point x="100" y="406" type="line"/>
      <point x="100" y="313" type="line"/>
    </contour>
    <component base="T"/>
  </outline>
</glyph>
<glyph name="tbar" format="2">
  <advance width="600"/>
  <unicode hex="0167"/>
  <anchor x="360" y="0" name="bottom"/>
  <anchor x="300" y="266" name="center"/>
  <anchor x="248" y="652" name="top"/>
  <anchor x="355" y="812" name="topright"/>
  <outline>
    <contour>
      <point x="482" y="361" type="line"/>
      <point x="168" y="361" type="line"/>
      <point x="69" y="361" type="line"/>
      <point x="69" y="261" type="line"/>
      <point x="328" y="261" type="line"/>
      <point x="482" y="261" type="line"/>
    </contour>
    <component base="t"/>
  </outline>
</glyph>
<glyph name="circumflex" format="2">
  <advance width="600"/>
  <unicode hex="02C6"/>
  <anchor x="300" y="531" name="_top"/>
  <outline>
    <contour>
      <point x="167" y="611" type="line"/>
      <point x="300" y="705" type="line"/>
      <point x="433" y="611" type="line"/>
      <point x="490" y="676" type="line"/>
      <point x="349" y="816" type="line"/>
      <point x="251" y="816" type="line"/>
      <point x="109" y="676" type="line"/>
    </contour>
  </outline>
</glyph>
<glyph name="caron" format="2">
  <advance width="600"/>
  <unicode hex="02C7"/>
  <anchor x="300" y="531" name="_top"/>
  <outline>
    <contour>
      <point x="433" y="816" type="line"/>
      <point x="300" y="722" type="line"/>
      <point x="167" y="816" type="line"/>
      <point x="109" y="751" type="line"/>
      <point x="251" y="611" type="line"/>
      <point x="349" y="611" type="line"/>
      <point x="490" y="751" type="line"/>
    </contour>
  </outline>
</glyph>
<glyph name="dotaccent" format="2">
  <advance width="600"/>
  <unicode hex="02D9"/>
  <anchor x="300" y="720" name="_center"/>
  <anchor x="300" y="531" name="_top"/>
  <outline>
    <contour>
      <point x="300" y="810" type="curve" smooth="yes"/>
      <point x="244" y="810"/>
      <point x="205" y="771"/>
      <point x="205" y="720" type="curve" smooth="yes"/>
      <point x="205" y="669"/>
      <point x="244" y="630"/>
      <point x="300" y="630" type="curve" smooth="yes"/>
      <point x="355" y="630"/>
      <point x="394" y="669"/>
      <point x="394" y="720" type="curve" smooth="yes"/>
      <point x="394" y="771"/>
      <point x="355" y="810"/>
    </contour>
  </outline>
</glyph>
<glyph name="gravecomb" format="2">
  <unicode hex="0300"/>
  <anchor x="300" y="531" name="_top"/>
  <outline>
    <contour>
      <point x="224" y="836" type="line"/>
      <point x="162" y="716" type="line"/>
      <point x="399" y="622" type="line"/>
      <point x="443" y="703" type="line"/>
    </contour>
  </outline>
</glyph>
<glyph name="acutecomb" format="2">
  <unicode hex="0301"/>
  <anchor x="300" y="531" name="_top"/>
  <outline>
    <contour>
      <point x="376" y="836" type="line"/>
      <point x="157" y="703" type="line"/>
      <point x="201" y="622" type="line"/>
      <point x="438" y="716" type="line"/>
    </contour>
  </outline>
</glyph>
<glyph name="circumflexcomb" format="2">
  <unicode hex="0302"/>
  <anchor x="301" y="531" name="_top"/>
  <outline>
    <contour>
      <point x="350" y="782" type="line"/>
      <point x="252" y="782" type="line"/>
      <point x="110" y="651" type="line"/>
      <point x="168" y="586" type="line"/>
      <point x="301" y="671" type="line"/>
      <point x="434" y="586" type="line"/>
      <point x="491" y="651" type="line"/>
    </contour>
  </outline>
</glyph>
<glyph name="brevecomb" format="2">
  <unicode hex="0306"/>
  <anchor x="300" y="531" name="_top"/>
  <outline>
    <contour>
      <point x="300" y="589" type="curve" smooth="yes"/>
      <point x="411" y="589"/>
      <point x="464" y="658"/>
      <point x="473" y="744" type="curve"/>
      <point x="385" y="760" type="line"/>
      <point x="372" y="718"/>
      <point x="346" y="700"/>
      <point x="300" y="700" type="curve" smooth="yes"/>
      <point x="254" y="700"/>
      <point x="228" y="718"/>
      <point x="215" y="760" type="curve"/>
      <point x="127" y="744" type="line"/>
      <point x="137" y="658"/>
      <point x="189" y="589"/>
    </contour>
  </outline>
</glyph>
<glyph name="caroncomb" format="2">
  <unicode hex="030C"/>
  <anchor x="301" y="531" name="_top"/>
  <outline>
    <contour>
      <point x="434" y="785" type="line"/>
      <point x="301" y="700" type="line"/>
      <point x="168" y="785" type="line"/>
      <point x="110" y="720" type="line"/>
      <point x="252" y="589" type="line"/>
      <point x="350" y="589" type="line"/>
      <point x="491" y="720" type="line"/>
    </contour>
  </outline>
</glyph>
<glyph name="commaaccent" format="2">
  <unicode hex="0326"/>
  <anchor x="301" y="0" name="_bottom"/>
  <outline>
    <contour>
      <point x="301" y="-65" type="curve" smooth="yes"/>
      <point x="255" y="-65"/>
      <point x="221" y="-100"/>
      <point x="221" y="-143" type="curve" smooth="yes"/>
      <point x="221" y="-172"/>
      <point x="235" y="-193"/>
      <point x="254" y="-208" type="curve"/>
      <point x="227" y="-323" type="line"/>
      <point x="307" y="-323" type="line"/>
      <point x="356" y="-226" type="line" smooth="yes"/>
      <point x="371" y="-196"/>
      <point x="380" y="-167"/>
      <point x="380" y="-143" type="curve" smooth="yes"/>
      <point x="380" y="-98"/>
      <point x="346" y="-65"/>
    </contour>
  </outline>
</glyph>
<glyph name="strokeshortoverlay" format="2">
  <unicode hex="0335"/>
  <outline>
    <contour>
      <point x="499" y="282" type="line"/>
      <point x="499" y="376" type="line"/>
      <point x="102" y="376" type="line"/>
      <point x="102" y="282" type="line"/>
    </contour>
  </outline>
</glyph>
<glyph name="strokelongoverlay" format="2">
  <unicode hex="0336"/>
  <outline>
    <contour>
      <point x="634" y="282" type="line"/>
      <point x="634" y="376" type="line"/>
      <point x="-34" y="376" type="line"/>
      <point x="-34" y="282" type="line"/>
    </contour>
  </outline>
</glyph>
<glyph name="ypogegrammenicomb" format="2">
  <unicode hex="0345"/>
  <anchor x="235" y="0" name="_bottom"/>
  <anchor x="312" y="-204" name="bottom"/>
  <outline>
    <contour>
      <point x="311" y="-204" type="curve" smooth="yes"/>
      <point x="363" y="-204"/>
      <point x="397" y="-187"/>
      <point x="423" y="-167" type="curve"/>
      <point x="382" y="-98" type="line"/>
      <point x="365" y="-108"/>
      <point x="351" y="-113"/>
      <point x="331" y="-113" type="curve" smooth="yes"/>
      <point x="304" y="-113"/>
      <point x="292" y="-99"/>
      <point x="292" y="-73" type="curve" smooth="yes"/>
      <point x="292" y="-42" type="line"/>
      <point x="178" y="-42" type="line"/>
      <point x="178" y="-76" type="line" smooth="yes"/>
      <point x="178" y="-151"/>
      <point x="224" y="-204"/>
    </contour>
  </outline>
</glyph>
<glyph name="Heta" format="2">
  <advance width="600"/>
  <unicode hex="0370"/>
  <anchor x="300" y="0" name="bottom"/>
  <anchor x="300" y="693" name="top"/>
  <outline>
    <contour>
      <point x="505" y="293" type="line"/>
      <point x="505" y="427" type="line"/>
      <point x="261" y="427" type="line"/>
      <point x="261" y="693" type="line"/>
      <point x="96" y="693" type="line"/>
      <point x="96" y="0" type="line"/>
      <point x="261" y="0" type="line"/>
      <point x="261" y="293" type="line"/>
    </contour>
  </outline>
</glyph>
<glyph name="heta" format="2">
  <advance width="600"/>
  <unicode hex="0371"/>
  <anchor x="300" y="0" name="bottom"/>
  <anchor x="300" y="531" name="top"/>
  <outline>
    <contour>
      <point x="533" y="209" type="line"/>
      <point x="533" y="332" type="line"/>
      <point x="208" y="332" type="line"/>
      <point x="208" y="209" type="line"/>
    </contour>
    <contour>
      <point x="236" y="545" type="curve"/>
      <point x="88" y="525" type="line"/>
      <point x="99" y="491"/>
      <point x="110" y="439"/>
      <point x="110" y="383" type="curve" smooth="yes"/>
      <point x="110" y="0" type="line"/>
      <point x="270" y="0" type="line"/>
      <point x="270" y="345" type="line" smooth="yes"/>
      <point x="270" y="456"/>
      <point x="255" y="507"/>
    </contour>
  </outline>
</glyph>
<glyph name="Archaicsampi" format="2">
  <advance width="600"/>
  <unicode hex="0372"/>
  <anchor x="300" y="0" name="bottom"/>
  <anchor x="300" y="693" name="top"/>
  <outline>
    <contour>
      <point x="217" y="0" type="line"/>
      <point x="383" y="0" type="line"/>
      <point x="383" y="568" type="line"/>
      <point x="585" y="568" type="line"/>
      <point x="585" y="693" type="line"/>
      <point x="16" y="693" type="line"/>
      <point x="16" y="568" type="line"/>
      <point x="217" y="568" type="line"/>
    </contour>
    <contour>
      <point x="16" y="399" type="line"/>
      <point x="139" y="399" type="line"/>
      <point x="139" y="630" type="line"/>
      <point x="16" y="630" type="line"/>
    </contour>
    <contour>
      <point x="462" y="399" type="line"/>
      <point x="585" y="399" type="line"/>
      <point x="585" y="624" type="line"/>
      <point x="462" y="624" type="line"/>
    </contour>
  </outline>
</glyph>
<glyph name="archaicsampi" format="2">
  <advance width="600"/>
  <unicode hex="0373"/>
  <anchor x="300" y="-222" name="bottom"/>
  <anchor x="300" y="531" name="top"/>
  <outline>
    <contour>
      <point x="378" y="495" type="line"/>
      <point x="218" y="495" type="line"/>
      <point x="218" y="-222" type="line"/>
      <point x="378" y="-205" type="line"/>
    </contour>
    <contour>
      <point x="35" y="401" type="line"/>
      <point x="66" y="410"/>
      <point x="108" y="412"/>
      <point x="137" y="412" type="curve" smooth="yes"/>
      <point x="569" y="412" type="line"/>
      <point x="569" y="531" type="line"/>
      <point x="132" y="531" type="line" smooth="yes"/>
      <point x="79" y="531"/>
      <point x="42" y="526"/>
      <point x="11" y="513" type="curve"/>
    </contour>
  </outline>
</glyph>
<glyph name="pamphyliandigamma" format="2">
  <advance width="600"/>
  <unicode hex="0377"/>
  <anchor x="300" y="0" name="bottom"/>
  <anchor x="300" y="531" name="top"/>
  <outline>
    <contour>
      <point x="65" y="0" type="line"/>
      <point x="228" y="0" type="line"/>
      <point x="413" y="395" type="line"/>
      <point x="527" y="531" type="line"/>
      <point x="367" y="531" type="line"/>
      <point x="188" y="138" type="line"/>
      <point x="206" y="203"/>
      <point x="216" y="282"/>
      <point x="216" y="362" type="curve" smooth="yes"/>
      <point x="216" y="531" type="line"/>
      <point x="65" y="531" type="line"/>
    </contour>
    <contour>
      <point x="523" y="-17" type="curve"/>
      <point x="570" y="99" type="line"/>
      <point x="536" y="115"/>
      <point x="527" y="135"/>
      <point x="527" y="180" type="curve" smooth="yes"/>
      <point x="527" y="531" type="line"/>
      <point x="413" y="395" type="line"/>
      <point x="402" y="342"/>
      <point x="379" y="196"/>
      <point x="379" y="144" type="curve" smooth="yes"/>
      <point x="379" y="49"/>
      <point x="434" y="2"/>
    </contour>
  </outline>
</glyph>
<glyph name="tonos" format="2">
  <advance width="600"/>
  <unicode hex="0384"/>
  <anchor x="255" y="531" name="_top"/>
  <outline>
    <contour>
      <point x="242" y="848" type="line"/>
      <point x="204" y="604" type="line"/>
      <point x="308" y="587" type="line"/>
      <point x="397" y="816" type="line"/>
    </contour>
  </outline>
</glyph>
<glyph name="dieresistonos" format="2">
  <advance width="600"/>
  <unicode hex="0385"/>
  <anchor x="300" y="531" name="_top"/>
  <outline>
    <contour>
      <point x="281" y="955" type="line"/>
      <point x="252" y="754" type="line"/>
      <point x="340" y="740" type="line"/>
      <point x="412" y="931" type="line"/>
    </contour>
    <contour>
      <point x="168" y="760" type="curve" smooth="yes"/>
      <point x="121" y="760"/>
      <point x="86" y="725"/>
      <point x="86" y="680" type="curve" smooth="yes"/>
      <point x="86" y="636"/>
      <point x="121" y="600"/>
      <point x="168" y="600" type="curve" smooth="yes"/>
      <point x="213" y="600"/>
      <point x="249" y="636"/>
      <point x="249" y="680" type="curve" smooth="yes"/>
      <point x="249" y="725"/>
      <point x="213" y="760"/>
    </contour>
    <contour>
      <point x="432" y="760" type="curve" smooth="yes"/>
      <point x="386" y="760"/>
      <point x="351" y="725"/>
      <point x="351" y="680" type="curve" smooth="yes"/>
      <point x="351" y="636"/>
      <point x="386" y="600"/>
      <point x="432" y="600" type="curve" smooth="yes"/>
      <point x="478" y="600"/>
      <point x="514" y="636"/>
      <point x="514" y="680" type="curve" smooth="yes"/>
      <point x="514" y="725"/>
      <point x="478" y="760"/>
    </contour>
  </outline>
</glyph>
<glyph name="Delta" format="2">
  <advance width="600"/>
  <unicode hex="0394"/>
  <anchor x="300" y="0" name="bottom"/>
  <anchor x="300" y="693" name="top"/>
  <outline>
    <contour>
      <point x="401" y="693" type="line"/>
      <point x="200" y="693" type="line"/>
      <point x="-12" y="0" type="line"/>
      <point x="613" y="0" type="line"/>
    </contour>
    <contour>
      <point x="298" y="574" type="line"/>
      <point x="402.779" y="135" type="line"/>
      <point x="193.986" y="135" type="line"/>
    </contour>
  </outline>
</glyph>
<glyph name="Xi" format="2">
  <advance width="600"/>
  <unicode hex="039E"/>
  <anchor x="300" y="0" name="bottom"/>
  <anchor x="300" y="693" name="top"/>
  <outline>
    <contour>
      <point x="548" y="136" type="line"/>
      <point x="52" y="136" type="line"/>
      <point x="52" y="0" type="line"/>
      <point x="548" y="0" type="line"/>
    </contour>
    <contour>
      <point x="485" y="414" type="line"/>
      <point x="112" y="414" type="line"/>
      <point x="112" y="290" type="line"/>
      <point x="485" y="290" type="line"/>
    </contour>
    <contour>
      <point x="548" y="693" type="line"/>
      <point x="52" y="693" type="line"/>
      <point x="52" y="562" type="line"/>
      <point x="529" y="562" type="line"/>
    </contour>
  </outline>
</glyph>
<glyph name="Sigma" format="2">
  <advance width="600"/>
  <unicode hex="03A3"/>
  <anchor x="300" y="0" name="bottom"/>
  <anchor x="300" y="693" name="top"/>
  <outline>
    <contour>
      <point x="423" y="311" type="line"/>
      <point x="423" y="376" type="line"/>
      <point x="238" y="573" type="line"/>
      <point x="546" y="573" type="line"/>
      <point x="546" y="693" type="line"/>
      <point x="54" y="693" type="line"/>
      <point x="54" y="573" type="line"/>
      <point x="265" y="341" type="line"/>
      <point x="54" y="120" type="line"/>
      <point x="54" y="0" type="line"/>
      <point x="546" y="0" type="line"/>
      <point x="546" y="123" type="line"/>
      <point x="236" y="123" type="line"/>
    </contour>
  </outline>
</glyph>
<glyph name="Phi" format="2">
  <advance width="600"/>
  <unicode hex="03A6"/>
  <anchor x="300" y="0" name="bottom"/>
  <anchor x="300" y="693" name="top"/>
  <outline>
    <contour>
      <point x="357" y="693" type="line"/>
      <point x="243" y="693" type="line"/>
      <point x="243" y="614" type="line"/>
      <point x="80" y="608"/>
      <point x="4" y="531"/>
      <point x="4" y="350" type="curve" smooth="yes"/>
      <point x="4" y="171"/>
      <point x="80" y="85"/>
      <point x="243" y="80" type="curve"/>
      <point x="243" y="0" type="line"/>
      <point x="357" y="0" type="line"/>
      <point x="357" y="80" type="line"/>
      <point x="514" y="85"/>
      <point x="596" y="171"/>
      <point x="596" y="350" type="curve" smooth="yes"/>
      <point x="596" y="531"/>
      <point x="514" y="608"/>
      <point x="357" y="614" type="curve"/>
    </contour>
    <contour>
      <point x="253" y="525" type="curve"/>
      <point x="253" y="171" type="line"/>
      <point x="171" y="173"/>
      <point x="151" y="237"/>
      <point x="151" y="350" type="curve" smooth="yes"/>
      <point x="151" y="464"/>
      <point x="175" y="524"/>
    </contour>
    <contour>
      <point x="347" y="525" type="line"/>
      <point x="424" y="524"/>
      <point x="449" y="464"/>
      <point x="449" y="350" type="curve" smooth="yes"/>
      <point x="449" y="238"/>
      <point x="429" y="173"/>
      <point x="347" y="171" type="curve"/>
    </contour>
  </outline>
</glyph>
<glyph name="theta" format="2">
  <advance width="600"/>
  <unicode hex="03B8"/>
  <anchor x="300" y="0" name="bottom"/>
  <anchor x="300" y="742" name="top"/>
  <outline>
    <contour>
      <point x="300" y="759" type="curve" smooth="yes"/>
      <point x="137" y="759"/>
      <point x="41" y="624"/>
      <point x="41" y="372" type="curve" smooth="yes"/>
      <point x="41" y="116"/>
      <point x="137" y="-17"/>
      <point x="300" y="-17" type="curve" smooth="yes"/>
      <point x="463" y="-17"/>
      <point x="559" y="118"/>
      <point x="559" y="373" type="curve" smooth="yes"/>
      <point x="559" y="627"/>
      <point x="464" y="759"/>
    </contour>
    <contour>
      <point x="404" y="324" type="line"/>
      <point x="399" y="148"/>
      <point x="364" y="98"/>
      <point x="300" y="98" type="curve" smooth="yes"/>
      <point x="236" y="98"/>
      <point x="200" y="148"/>
      <point x="195" y="324" type="curve"/>
    </contour>
    <contour>
      <point x="300" y="644" type="curve" smooth="yes"/>
      <point x="365" y="644"/>
      <point x="399" y="593"/>
      <point x="404" y="417" type="curve"/>
      <point x="196" y="417" type="line"/>
      <point x="200" y="593"/>
      <point x="236" y="644"/>
    </contour>
  </outline>
</glyph>
<glyph name="nu" format="2">
  <advance width="600"/>
  <unicode hex="03BD"/>
  <anchor x="300" y="0" name="bottom"/>
  <anchor x="300" y="531" name="top"/>
  <outline>
    <contour>
      <point x="203" y="0" type="curve"/>
      <point x="384" y="0" type="line"/>
      <point x="576" y="514" type="line"/>
      <point x="422" y="549" type="line"/>
      <point x="300" y="120" type="line"/>
      <point x="272" y="327"/>
      <point x="222" y="476"/>
      <point x="161" y="548" type="curve"/>
      <point x="15" y="498" type="line"/>
      <point x="94" y="422"/>
      <point x="161" y="213"/>
    </contour>
  </outline>
</glyph>
<glyph name="KoppaArchaic" format="2">
  <advance width="600"/>
  <unicode hex="03D8"/>
  <anchor x="300" y="-222" name="bottom"/>
  <anchor x="300" y="693" name="top"/>
  <anchor x="94" y="693" name="topleft"/>
  <outline>
    <contour>
      <point x="221" y="-210" type="line"/>
      <point x="379" y="-210" type="line"/>
      <point x="379" y="0" type="line"/>
      <point x="221" y="0" type="line"/>
    </contour>
    <component base="O"/>
  </outline>
</glyph>
<glyph name="koppaArchaic" format="2">
  <advance width="600"/>
  <unicode hex="03D9"/>
  <anchor x="300" y="-222" name="bottom"/>
  <anchor x="300" y="531" name="top"/>
  <outline>
    <contour>
      <point x="378" y="4" type="line"/>
      <point x="222" y="4" type="line"/>
      <point x="222" y="-222" type="line"/>
      <point x="378" y="-205" type="line"/>
    </contour>
    <component base="o"/>
  </outline>
</glyph>
<glyph name="Digamma" format="2">
  <advance width="600"/>
  <unicode hex="03DC"/>
  <anchor x="168" y="0" name="bottom"/>
  <anchor x="281" y="0" name="bottomright"/>
  <anchor x="328" y="693" name="top"/>
  <outline>
    <contour>
      <point x="462" y="260" type="curve"/>
      <point x="500" y="367" type="line"/>
      <point x="468" y="387"/>
      <point x="433" y="396"/>
      <point x="380" y="396" type="curve" smooth="yes"/>
      <point x="137" y="396" type="line"/>
      <point x="137" y="276" type="line"/>
      <point x="370" y="276" type="line" smooth="yes"/>
      <point x="412" y="276"/>
      <point x="436" y="270"/>
    </contour>
    <component base="Gamma" xOffset="-4"/>
  </outline>
</glyph>
<glyph name="Koppa" format="2">
  <advance width="600"/>
  <unicode hex="03DE"/>
  <anchor x="300" y="0" name="bottom"/>
  <anchor x="300" y="693" name="top"/>
  <outline>
    <contour>
      <point x="165" y="0" type="line"/>
      <point x="340" y="0" type="line"/>
      <point x="555" y="284" type="line"/>
      <point x="407" y="319" type="line"/>
    </contour>
    <contour>
      <point x="70" y="284" type="line"/>
      <point x="556" y="284" type="line"/>
      <point x="529" y="414" type="line"/>
      <point x="44" y="414" type="line"/>
    </contour>
    <contour>
      <point x="193" y="379" type="line"/>
      <point x="434" y="693" type="line"/>
      <point x="259" y="693" type="line"/>
      <point x="44" y="414" type="line"/>
    </contour>
  </outline>
</glyph>
<glyph name="Sampi" format="2">
  <advance width="600"/>
  <unicode hex="03E0"/>
  <anchor x="300" y="0" name="bottom"/>
  <anchor x="300" y="693" name="top"/>
  <outline>
    <contour>
      <point x="453" y="0" type="line"/>
      <point x="596" y="0" type="line"/>
      <point x="348" y="693" type="line"/>
      <point x="223" y="693" type="line"/>
      <point x="280" y="558" type="line"/>
    </contour>
    <contour>
      <point x="4" y="0" type="line"/>
      <point x="153" y="0" type="line"/>
      <point x="349" y="614" type="line"/>
      <point x="251" y="641" type="line"/>
    </contour>
    <contour>
      <point x="213" y="1" type="line"/>
      <point x="314" y="0" type="line"/>
      <point x="428" y="398" type="line"/>
      <point x="337" y="409" type="line"/>
    </contour>
  </outline>
</glyph>
<glyph name="sampi" format="2">
  <advance width="600"/>
  <unicode hex="03E1"/>
  <anchor x="300" y="-222" name="bottom"/>
  <anchor x="300" y="742" name="top"/>
  <outline>
    <contour>
      <point x="8" y="0" type="line"/>
      <point x="135" y="0" type="line"/>
      <point x="367" y="507" type="line"/>
      <point x="278" y="585" type="line"/>
    </contour>
    <contour>
      <point x="217" y="0" type="line"/>
      <point x="320" y="0" type="line"/>
      <point x="458" y="342" type="line"/>
      <point x="386" y="402" type="line"/>
    </contour>
    <contour>
      <point x="81" y="762" type="curve"/>
      <point x="33" y="668" type="line"/>
      <point x="314" y="536"/>
      <point x="429" y="382"/>
      <point x="429" y="91" type="curve" smooth="yes"/>
      <point x="429" y="-18"/>
      <point x="417" y="-113"/>
      <point x="398" y="-203" type="curve"/>
      <point x="508" y="-221" type="line"/>
      <point x="532" y="-135"/>
      <point x="552" y="-7"/>
      <point x="552" y="91" type="curve" smooth="yes"/>
      <point x="552" y="439"/>
      <point x="389" y="639"/>
    </contour>
  </outline>
</glyph>
<glyph name="rhoStrokeSymbol" format="2">
  <advance width="600"/>
  <unicode hex="03FC"/>
  <anchor x="323" y="-222" name="bottom"/>
  <anchor x="334" y="531" name="top"/>
  <outline>
    <contour>
      <point x="29" y="-52" type="line"/>
      <point x="29" y="-146" type="line"/>
      <point x="90" y="-146" type="line"/>
      <point x="387" y="-146" type="line"/>
      <point x="387" y="-52" type="line"/>
    </contour>
    <component base="rho" xOffset="23"/>
  </outline>
</glyph>
<glyph name="Ge-cy" format="2">
  <advance width="600"/>
  <unicode hex="0413"/>
  <anchor x="172" y="0" name="bottom"/>
  <anchor x="285" y="0" name="bottomright"/>
  <anchor x="332" y="693" name="top"/>
  <outline>
    <contour>
      <point x="559" y="693" type="line"/>
      <point x="89" y="693" type="line"/>
      <point x="89" y="0" type="line"/>
      <point x="255" y="0" type="line"/>
      <point x="255" y="563" type="line"/>
      <point x="543" y="563" type="line"/>
    </contour>
  </outline>
</glyph>
<glyph name="De-cy" format="2">
  <advance width="600"/>
  <unicode hex="0414"/>
  <anchor x="504" y="0" name="_bottom"/>
  <anchor x="300" y="-222" name="bottom"/>
  <anchor x="300" y="693" name="top"/>
  <outline>
    <contour>
      <point x="525" y="693" type="line"/>
      <point x="138" y="693" type="line"/>
      <point x="118" y="475" type="line" smooth="yes"/>
      <point x="96" y="240"/>
      <point x="73" y="170"/>
      <point x="29" y="123" type="curve"/>
      <point x="116" y="0" type="line"/>
      <point x="451" y="-1" type="line"/>
      <point x="525" y="123" type="line"/>
    </contour>
    <contour>
      <point x="373" y="576" type="line"/>
      <point x="373" y="123" type="line"/>
      <point x="159" y="123" type="line"/>
      <point x="224" y="177"/>
      <point x="251" y="260"/>
      <point x="270" y="489" type="curve" smooth="yes"/>
      <point x="277" y="576" type="line"/>
    </contour>
    <component base="descStraight-cy.case" xOffset="185"/>
    <component base="descStraight-cy.case" xScale="-1" xOffset="382"/>
  </outline>
</glyph>
<glyph name="Zhe-cy" format="2">
  <advance width="600"/>
  <unicode hex="0416"/>
  <anchor x="300" y="0" name="bottom"/>
  <anchor x="583" y="0" name="bottomright"/>
  <anchor x="300" y="693" name="top"/>
  <outline>
    <contour>
      <point x="250" y="320" type="line"/>
      <point x="250" y="0" type="line"/>
      <point x="350" y="0" type="line"/>
      <point x="350" y="320" type="line"/>
      <point x="377" y="320" type="line"/>
      <point x="455" y="0" type="line"/>
      <point x="598" y="0" type="line"/>
      <point x="491" y="379" type="line"/>
      <point x="588" y="693" type="line"/>
      <point x="452" y="693" type="line"/>
      <point x="376" y="402" type="line"/>
      <point x="350" y="402" type="line"/>
      <point x="350" y="693" type="line"/>
      <point x="250" y="693" type="line"/>
      <point x="250" y="402" type="line"/>
      <point x="224" y="402" type="line"/>
      <point x="148" y="693" type="line"/>
      <point x="12" y="693" type="line"/>
      <point x="109" y="379" type="line"/>
      <point x="2" y="0" type="line"/>
      <point x="143" y="0" type="line"/>
      <point x="221" y="320" type="line"/>
    </contour>
  </outline>
</glyph>
<glyph name="Ii-cy" format="2">
  <advance width="600"/>
  <unicode hex="0418"/>
  <anchor x="300" y="0" name="bottom"/>
  <anchor x="559" y="0" name="bottomright"/>
  <anchor x="300" y="693" name="top"/>
  <outline>
    <contour>
      <point x="51" y="0" type="line"/>
      <point x="237" y="0" type="line"/>
      <point x="424" y="547" type="line"/>
      <point x="409" y="461"/>
      <point x="397" y="362"/>
      <point x="397" y="227" type="curve" smooth="yes"/>
      <point x="397" y="0" type="line"/>
      <point x="549" y="0" type="line"/>
      <point x="549" y="693" type="line"/>
      <point x="366" y="693" type="line"/>
      <point x="175" y="145" type="line"/>
      <point x="190" y="229"/>
      <point x="203" y="317"/>
      <point x="203" y="461" type="curve" smooth="yes"/>
      <point x="203" y="693" type="line"/>
      <point x="51" y="693" type="line"/>
    </contour>
  </outline>
</glyph>
<glyph name="Ka-cy" format="2">
  <advance width="600"/>
  <unicode hex="041A"/>
  <anchor x="300" y="0" name="bottom"/>
  <anchor x="571" y="0" name="bottomright"/>
  <anchor x="324" y="693" name="top"/>
  <outline>
    <contour>
      <point x="279" y="301" type="line"/>
      <point x="428" y="0" type="line"/>
      <point x="609" y="0" type="line"/>
      <point x="415" y="379" type="line"/>
      <point x="590" y="693" type="line"/>
      <point x="429" y="693" type="line"/>
      <point x="277" y="421" type="line"/>
      <point x="217" y="421" type="line"/>
      <point x="217" y="693" type="line"/>
      <point x="51" y="693" type="line"/>
      <point x="51" y="0" type="line"/>
      <point x="217" y="0" type="line"/>
      <point x="217" y="301" type="line"/>
    </contour>
  </outline>
</glyph>
<glyph name="Pe-cy" format="2">
  <advance width="600"/>
  <unicode hex="041F"/>
  <anchor x="300" y="0" name="bottom"/>
  <anchor x="559" y="0" name="bottomright"/>
  <anchor x="300" y="693" name="top"/>
  <outline>
    <contour>
      <point x="383" y="0" type="line"/>
      <point x="549" y="0" type="line"/>
      <point x="549" y="693" type="line"/>
      <point x="51" y="693" type="line"/>
      <point x="51" y="0" type="line"/>
      <point x="217" y="0" type="line"/>
      <point x="217" y="566" type="line"/>
      <point x="383" y="566" type="line"/>
    </contour>
  </outline>
</glyph>
<glyph name="U-cy" format="2">
  <advance width="600"/>
  <unicode hex="0423"/>
  <anchor x="300" y="0" name="bottom"/>
  <anchor x="310" y="693" name="top"/>
  <outline>
    <contour>
      <point x="608" y="693" type="line"/>
      <point x="440" y="693" type="line"/>
      <point x="311" y="278" type="line"/>
      <point x="166" y="693" type="line"/>
      <point x="-6" y="693" type="line"/>
      <point x="209" y="183" type="line"/>
      <point x="262" y="183" type="line"/>
      <point x="231" y="129"/>
      <point x="190" y="106"/>
      <point x="84" y="96" type="curve"/>
      <point x="106" y="-17" type="line"/>
      <point x="296" y="-2"/>
      <point x="364" y="58"/>
      <point x="433" y="237" type="curve" smooth="yes"/>
    </contour>
  </outline>
</glyph>
<glyph name="Che-cy" format="2">
  <advance width="600"/>
  <unicode hex="0427"/>
  <anchor x="300" y="0" name="bottom"/>
  <anchor x="373" y="0" name="bottomleft"/>
  <anchor x="559" y="0" name="bottomright"/>
  <anchor x="286" y="693" name="top"/>
  <outline>
    <contour>
      <point x="190" y="693" type="line"/>
      <point x="24" y="693" type="line"/>
      <point x="24" y="434" type="line" smooth="yes"/>
      <point x="24" y="278"/>
      <point x="104" y="197"/>
      <point x="240" y="197" type="curve" smooth="yes"/>
      <point x="304" y="197"/>
      <point x="355" y="218"/>
      <point x="395" y="252" type="curve"/>
      <point x="392" y="364" type="line"/>
      <point x="370" y="341"/>
      <point x="340" y="320"/>
      <point x="286" y="320" type="curve" smooth="yes"/>
      <point x="218" y="320"/>
      <point x="190" y="352"/>
      <point x="190" y="439" type="curve" smooth="yes"/>
    </contour>
    <contour>
      <point x="549" y="693" type="line"/>
      <point x="383" y="693" type="line"/>
      <point x="383" y="0" type="line"/>
      <point x="549" y="0" type="line"/>
    </contour>
  </outline>
</glyph>
<glyph name="Sha-cy" format="2">
  <advance width="600"/>
  <unicode hex="0428"/>
  <anchor x="300" y="0" name="bottom"/>
  <anchor x="575" y="0" name="bottomright"/>
  <anchor x="300" y="693" name="top"/>
  <outline>
    <contour>
      <point x="565" y="693" type="line"/>
      <point x="434" y="693" type="line"/>
      <point x="434" y="113" type="line"/>
      <point x="358" y="113" type="line"/>
      <point x="358" y="693" type="line"/>
      <point x="242" y="693" type="line"/>
      <point x="242" y="113" type="line"/>
      <point x="166" y="113" type="line"/>
      <point x="166" y="693" type="line"/>
      <point x="35" y="693" type="line"/>
      <point x="35" y="0" type="line"/>
      <point x="565" y="0" type="line"/>
    </contour>
  </outline>
</glyph>
<glyph name="Softsign-cy" format="2">
  <advance width="600"/>
  <unicode hex="042C"/>
  <anchor x="300" y="0" name="bottom"/>
  <anchor x="300" y="693" name="top"/>
  <outline>
    <contour>
      <point x="220" y="693" type="line"/>
      <point x="54" y="693" type="line"/>
      <point x="54" y="0" type="line"/>
      <point x="298" y="0" type="line" smooth="yes"/>
      <point x="466" y="0"/>
      <point x="577" y="76"/>
      <point x="577" y="236" type="curve" smooth="yes"/>
      <point x="577" y="389"/>
      <point x="468" y="460"/>
      <point x="287" y="460" type="curve" smooth="yes"/>
      <point x="220" y="460" type="line"/>
    </contour>
    <contour>
      <point x="281" y="342" type="line" smooth="yes"/>
      <point x="366" y="342"/>
      <point x="406" y="309"/>
      <point x="406" y="235" type="curve" smooth="yes"/>
      <point x="406" y="155"/>
      <point x="364" y="121"/>
      <point x="287" y="121" type="curve" smooth="yes"/>
      <point x="220" y="121" type="line"/>
      <point x="220" y="342" type="line"/>
    </contour>
  </outline>
</glyph>
<glyph name="ge-cy" format="2">
  <advance width="600"/>
  <unicode hex="0433"/>
  <anchor x="201" y="0" name="bottom"/>
  <anchor x="291" y="0" name="bottomright"/>
  <anchor x="338" y="531" name="top"/>
  <outline>
    <contour>
      <point x="281" y="0" type="line"/>
      <point x="281" y="408" type="line"/>
      <point x="521" y="408" type="line"/>
      <point x="539" y="531" type="line"/>
      <point x="121" y="531" type="line"/>
      <point x="121" y="0" type="line"/>
    </contour>
  </outline>
</glyph>
<glyph name="de-cy" format="2">
  <advance width="600"/>
  <unicode hex="0434"/>
  <anchor x="81" y="0" name="_bottom"/>
  <anchor x="300" y="-222" name="bottom"/>
  <anchor x="300" y="531" name="top"/>
  <outline>
    <contour>
      <point x="523" y="531" type="line"/>
      <point x="134" y="531" type="line"/>
      <point x="120" y="361" type="line" smooth="yes"/>
      <point x="107" y="199"/>
      <point x="90" y="153"/>
      <point x="55" y="118" type="curve"/>
      <point x="136" y="0" type="line"/>
      <point x="451" y="0" type="line"/>
      <point x="523" y="118" type="line"/>
    </contour>
    <contour>
      <point x="374" y="420" type="line"/>
      <point x="374" y="118" type="line"/>
      <point x="186" y="118" type="line"/>
      <point x="238" y="157"/>
      <point x="257" y="201"/>
      <point x="271" y="367" type="curve"/>
      <point x="275" y="420" type="line"/>
    </contour>
    <component base="descStraight-cy" xScale="-1" xOffset="395"/>
    <component base="descStraight-cy" xOffset="192"/>
  </outline>
</glyph>
<glyph name="zhe-cy" format="2">
  <advance width="600"/>
  <unicode hex="0436"/>
  <anchor x="300" y="0" name="bottom"/>
  <anchor x="587" y="0" name="bottomright"/>
  <anchor x="300" y="531" name="top"/>
  <outline>
    <contour>
      <point x="246" y="0" type="line"/>
      <point x="354" y="0" type="line"/>
      <point x="354" y="232" type="line"/>
      <point x="379" y="232" type="line"/>
      <point x="467" y="0" type="line"/>
      <point x="607" y="0" type="line"/>
      <point x="485" y="285" type="line"/>
      <point x="603" y="531" type="line"/>
      <point x="468" y="531" type="line"/>
      <point x="381" y="320" type="line"/>
      <point x="354" y="320" type="line"/>
      <point x="354" y="531" type="line"/>
      <point x="246" y="531" type="line"/>
      <point x="246" y="320" type="line"/>
      <point x="219" y="320" type="line"/>
      <point x="136" y="531" type="line"/>
      <point x="-3" y="531" type="line"/>
      <point x="116" y="285" type="line"/>
      <point x="-6" y="0" type="line"/>
      <point x="137" y="0" type="line"/>
      <point x="221" y="232" type="line"/>
      <point x="246" y="232" type="line"/>
    </contour>
  </outline>
</glyph>
<glyph name="ii-cy" format="2">
  <advance width="600"/>
  <unicode hex="0438"/>
  <anchor x="300" y="0" name="bottom"/>
  <anchor x="523" y="0" name="bottomright"/>
  <anchor x="300" y="531" name="top"/>
  <outline>
    <contour>
      <point x="531" y="531" type="line"/>
      <point x="365" y="531" type="line"/>
      <point x="192" y="138" type="line"/>
      <point x="210" y="203"/>
      <point x="220" y="282"/>
      <point x="220" y="362" type="curve" smooth="yes"/>
      <point x="220" y="531" type="line"/>
      <point x="69" y="531" type="line"/>
      <point x="69" y="0" type="line"/>
      <point x="234" y="0" type="line"/>
      <point x="407" y="392" type="line"/>
      <point x="391" y="334"/>
      <point x="380" y="257"/>
      <point x="380" y="167" type="curve" smooth="yes"/>
      <point x="380" y="0" type="line"/>
      <point x="531" y="0" type="line"/>
    </contour>
  </outline>
</glyph>
<glyph name="ka-cy" format="2">
  <advance width="600"/>
  <unicode hex="043A"/>
  <anchor x="300" y="0" name="bottom"/>
  <anchor x="538" y="0" name="bottomright"/>
  <anchor x="320" y="531" name="top"/>
  <outline>
    <contour>
      <point x="72" y="0" type="line"/>
      <point x="232" y="0" type="line"/>
      <point x="232" y="223" type="line"/>
      <point x="300" y="223" type="line"/>
      <point x="418" y="0" type="line"/>
      <point x="587" y="0" type="line"/>
      <point x="427" y="285" type="line"/>
      <point x="573" y="531" type="line"/>
      <point x="418" y="531" type="line"/>
      <point x="304" y="329" type="line"/>
      <point x="232" y="329" type="line"/>
      <point x="232" y="531" type="line"/>
      <point x="72" y="531" type="line"/>
    </contour>
  </outline>
</glyph>
<glyph name="pe-cy" format="2">
  <advance width="600"/>
  <unicode hex="043F"/>
  <anchor x="300" y="0" name="bottom"/>
  <anchor x="541" y="0" name="bottomright"/>
  <anchor x="300" y="531" name="top"/>
  <outline>
    <contour>
      <point x="372" y="0" type="line"/>
      <point x="531" y="0" type="line"/>
      <point x="531" y="531" type="line"/>
      <point x="69" y="531" type="line"/>
      <point x="69" y="0" type="line"/>
      <point x="228" y="0" type="line"/>
      <point x="228" y="413" type="line"/>
      <point x="372" y="413" type="line"/>
    </contour>
  </outline>
</glyph>
<glyph name="te-cy" format="2">
  <advance width="600"/>
  <unicode hex="0442"/>
  <anchor x="300" y="0" name="bottom"/>
  <anchor x="390" y="0" name="bottomright"/>
  <anchor x="300" y="531" name="top"/>
  <outline>
    <contour>
      <point x="564" y="531" type="line"/>
      <point x="42" y="531" type="line"/>
      <point x="42" y="413" type="line"/>
      <point x="220" y="413" type="line"/>
      <point x="220" y="0" type="line"/>
      <point x="380" y="0" type="line"/>
      <point x="380" y="413" type="line"/>
      <point x="545" y="413" type="line"/>
    </contour>
  </outline>
</glyph>
<glyph name="sha-cy" format="2">
  <advance width="600"/>
  <unicode hex="0448"/>
  <anchor x="300" y="0" name="bottom"/>
  <anchor x="566" y="0" name="bottomright"/>
  <anchor x="300" y="531" name="top"/>
  <outline>
    <contour>
      <point x="576" y="531" type="line"/>
      <point x="439" y="531" type="line"/>
      <point x="439" y="118" type="line"/>
      <point x="359" y="118" type="line"/>
      <point x="359" y="531" type="line"/>
      <point x="241" y="531" type="line"/>
      <point x="241" y="118" type="line"/>
      <point x="160" y="118" type="line"/>
      <point x="160" y="531" type="line"/>
      <point x="24" y="531" type="line"/>
      <point x="24" y="0" type="line"/>
      <point x="576" y="0" type="line"/>
    </contour>
  </outline>
</glyph>
<glyph name="Yat-cy" format="2">
  <advance width="600"/>
  <unicode hex="0462"/>
  <anchor x="300" y="0" name="bottom"/>
  <anchor x="300" y="693" name="top"/>
  <outline>
    <contour>
      <point x="125" y="0" type="line"/>
      <point x="329" y="0" type="line" smooth="yes"/>
      <point x="477" y="0"/>
      <point x="588" y="76"/>
      <point x="588" y="230" type="curve" smooth="yes"/>
      <point x="588" y="373"/>
      <point x="479" y="444"/>
      <point x="318" y="444" type="curve" smooth="yes"/>
      <point x="275" y="444" type="line"/>
      <point x="275" y="326" type="line"/>
      <point x="312" y="326" type="line" smooth="yes"/>
      <point x="377" y="326"/>
      <point x="417" y="293"/>
      <point x="417" y="229" type="curve" smooth="yes"/>
      <point x="417" y="155"/>
      <point x="375" y="121"/>
      <point x="318" y="121" type="curve" smooth="yes"/>
      <point x="291" y="121" type="line"/>
      <point x="291" y="693" type="line"/>
      <point x="125" y="693" type="line"/>
    </contour>
    <contour>
      <point x="10" y="519" type="line"/>
      <point x="413" y="519" type="line"/>
      <point x="413" y="615" type="line"/>
      <point x="125" y="615" type="line"/>
      <point x="10" y="615" type="line"/>
    </contour>
  </outline>
</glyph>
<glyph name="Yuslittle-cy" format="2">
  <advance width="600"/>
  <unicode hex="0466"/>
  <anchor x="300" y="0" name="bottom"/>
  <anchor x="300" y="693" name="top"/>
  <outline>
    <contour>
      <point x="-12" y="0" type="line"/>
      <point x="142" y="0" type="line"/>
      <point x="298" y="604" type="line"/>
      <point x="455" y="0" type="line"/>
      <point x="613" y="0" type="line"/>
      <point x="401" y="693" type="line"/>
      <point x="200" y="693" type="line"/>
    </contour>
    <contour>
      <point x="240" y="-1" type="line"/>
      <point x="361" y="-1" type="line"/>
      <point x="361" y="260" type="line"/>
      <point x="240" y="260" type="line"/>
    </contour>
    <contour>
      <point x="201" y="243" type="line"/>
      <point x="398" y="243" type="line"/>
      <point x="369" y="357" type="line"/>
      <point x="230" y="357" type="line"/>
    </contour>
  </outline>
</glyph>
<glyph name="Yuslittleiotified-cy" format="2">
  <advance width="600"/>
  <unicode hex="0468"/>
  <anchor x="300" y="0" name="bottom"/>
  <anchor x="300" y="693" name="top"/>
  <outline>
    <contour>
      <point x="306" y="263" type="line"/>
      <point x="332" y="357" type="line"/>
      <point x="127" y="357" type="line"/>
      <point x="127" y="693" type="line"/>
      <point x="0" y="693" type="line"/>
      <point x="0" y="-2" type="line"/>
      <point x="127" y="-2" type="line"/>
      <point x="127" y="263" type="line"/>
    </contour>
    <contour>
      <point x="141" y="0" type="line"/>
      <point x="265" y="0" type="line"/>
      <point x="381" y="619" type="line"/>
      <point x="498" y="0" type="line"/>
      <point x="626" y="0" type="line"/>
      <point x="484" y="693" type="line"/>
      <point x="283" y="693" type="line"/>
    </contour>
    <contour>
      <point x="331" y="-1" type="line"/>
      <point x="432" y="-1" type="line"/>
      <point x="432" y="273" type="line"/>
      <point x="331" y="273" type="line"/>
    </contour>
    <contour>
      <point x="284" y="263" type="line"/>
      <point x="481" y="263" type="line"/>
      <point x="452" y="357" type="line"/>
      <point x="313" y="357" type="line"/>
    </contour>
  </outline>
</glyph>
<glyph name="yuslittleiotified-cy" format="2">
  <advance width="600"/>
  <unicode hex="0469"/>
  <anchor x="300" y="0" name="bottom"/>
  <anchor x="300" y="531" name="top"/>
  <outline>
    <contour>
      <point x="339" y="0" type="line"/>
      <point x="434" y="0" type="line"/>
      <point x="434" y="188" type="line"/>
      <point x="339" y="188" type="line"/>
    </contour>
    <contour>
      <point x="13" y="0" type="line"/>
      <point x="137" y="0" type="line"/>
      <point x="137" y="178" type="line"/>
      <point x="482" y="178" type="line"/>
      <point x="482" y="273" type="line"/>
      <point x="137" y="273" type="line"/>
      <point x="137" y="531" type="line"/>
      <point x="13" y="531" type="line"/>
    </contour>
    <contour>
      <point x="155" y="0" type="line"/>
      <point x="272" y="0" type="line"/>
      <point x="387" y="460" type="line"/>
      <point x="507" y="0" type="line"/>
      <point x="623" y="0" type="line"/>
      <point x="472" y="531" type="line"/>
      <point x="301" y="531" type="line"/>
    </contour>
  </outline>
</glyph>
<glyph name="Yusbigiotified-cy" format="2">
  <advance width="600"/>
  <unicode hex="046C"/>
  <anchor x="300" y="0" name="bottom"/>
  <anchor x="300" y="693" name="top"/>
  <outline>
    <contour>
      <point x="5" y="-2" type="line"/>
      <point x="132" y="-2" type="line"/>
      <point x="132" y="310" type="line"/>
      <point x="231" y="310" type="line"/>
      <point x="257" y="402" type="line"/>
      <point x="132" y="402" type="line"/>
      <point x="132" y="693" type="line"/>
      <point x="5" y="693" type="line"/>
    </contour>
    <contour>
      <point x="157" y="0" type="line"/>
      <point x="278" y="0" type="line"/>
      <point x="303" y="310" type="line"/>
      <point x="328" y="310" type="line"/>
      <point x="328" y="0" type="line"/>
      <point x="440" y="0" type="line"/>
      <point x="440" y="310" type="line"/>
      <point x="465" y="310" type="line"/>
      <point x="490" y="0" type="line"/>
      <point x="613" y="0" type="line"/>
      <point x="557" y="402" type="line"/>
      <point x="209" y="402" type="line"/>
    </contour>
    <contour>
      <point x="308" y="329" type="line"/>
      <point x="458" y="330" type="line"/>
      <point x="574" y="605" type="line"/>
      <point x="574" y="693" type="line"/>
      <point x="492" y="693" type="line"/>
      <point x="384" y="402" type="line"/>
      <point x="270" y="693" type="line"/>
      <point x="188" y="693" type="line"/>
      <point x="188" y="605" type="line"/>
    </contour>
    <contour>
      <point x="249" y="605" type="line"/>
      <point x="538" y="605" type="line"/>
      <point x="538" y="693" type="line"/>
      <point x="267" y="693" type="line"/>
    </contour>
  </outline>
</glyph>
<glyph name="Gheupturn-cy" format="2">
  <advance width="600"/>
  <unicode hex="0490"/>
  <anchor x="172" y="0" name="bottom"/>
  <anchor x="285" y="0" name="bottomright"/>
  <anchor x="332" y="693" name="top"/>
  <outline>
    <contour>
      <point x="559" y="848" type="line"/>
      <point x="406" y="848" type="line"/>
      <point x="406" y="683" type="line"/>
      <point x="559" y="693" type="line"/>
    </contour>
    <component base="Ge-cy"/>
  </outline>
</glyph>
<glyph name="gheupturn-cy" format="2">
  <advance width="600"/>
  <unicode hex="0491"/>
  <anchor x="201" y="0" name="bottom"/>
  <anchor x="291" y="0" name="bottomright"/>
  <anchor x="338" y="531" name="top"/>
  <outline>
    <contour>
      <point x="394" y="504" type="line"/>
      <point x="539" y="531" type="line"/>
      <point x="539" y="684" type="line"/>
      <point x="394" y="684" type="line"/>
    </contour>
    <component base="ge-cy"/>
  </outline>
</glyph>
<glyph name="Ghestroke-cy" format="2">
  <advance width="600"/>
  <unicode hex="0492"/>
  <anchor x="197" y="0" name="bottom"/>
  <anchor x="310" y="0" name="bottomright"/>
  <anchor x="357" y="693" name="top"/>
  <outline>
    <contour>
      <point x="422" y="433" type="line"/>
      <point x="114" y="433" type="line"/>
      <point x="37" y="433" type="line"/>
      <point x="37" y="334" type="line"/>
      <point x="280" y="334" type="line"/>
      <point x="422" y="334" type="line"/>
    </contour>
    <component base="Ge-cy" xOffset="25"/>
  </outline>
</glyph>
<glyph name="ghestroke-cy" format="2">
  <advance width="600"/>
  <unicode hex="0493"/>
  <anchor x="227" y="0" name="bottom"/>
  <anchor x="317" y="0" name="bottomright"/>
  <anchor x="364" y="531" name="top"/>
  <outline>
    <contour>
      <point x="423" y="312" type="line"/>
      <point x="147" y="312" type="line"/>
      <point x="72" y="312" type="line"/>
      <point x="72" y="212" type="line"/>
      <point x="423" y="212" type="line"/>
    </contour>
    <component base="ge-cy" xOffset="26"/>
  </outline>
</glyph>
<glyph name="Ghemiddlehook-cy" format="2">
  <advance width="600"/>
  <unicode hex="0494"/>
  <anchor x="300" y="-222" name="bottom"/>
  <anchor x="576" y="0" name="bottomright"/>
  <anchor x="300" y="693" name="top"/>
  <outline>
    <contour>
      <point x="486" y="693" type="line"/>
      <point x="42" y="693" type="line"/>
      <point x="207" y="567" type="line"/>
      <point x="466" y="567" type="line"/>
    </contour>
    <component base="Shha-cy" xOffset="-10"/>
    <component base="hookHELPER.case" xOffset="168"/>
  </outline>
</glyph>
<glyph name="Zhedescender-cy" format="2">
  <advance width="600"/>
  <unicode hex="0496"/>
  <anchor x="300" y="0" name="bottom"/>
  <anchor x="583" y="0" name="bottomright"/>
  <anchor x="300" y="693" name="top"/>
  <outline>
    <contour>
      <point x="611" y="123" type="line"/>
      <point x="493" y="123" type="line"/>
      <point x="470" y="0" type="line"/>
      <point x="484" y="0" type="line"/>
      <point x="504" y="-175" type="line"/>
      <point x="611" y="-175" type="line"/>
    </contour>
    <component base="Zhe-cy"/>
    <component base="descStraight-cy.case" xScale="0" yScale="0" xOffset="583"/>
  </outline>
</glyph>
<glyph name="ustrait-cy" format="2">
  <advance width="600"/>
  <unicode hex="04AF"/>
  <anchor x="300" y="-222" name="bottom"/>
  <anchor x="300" y="531" name="top"/>
  <outline>
    <contour>
      <point x="222" y="-222" type="line"/>
      <point x="378" y="-205" type="line"/>
      <point x="378" y="5" type="line"/>
      <point x="577" y="531" type="line"/>
      <point x="414" y="531" type="line"/>
      <point x="303" y="139" type="line"/>
      <point x="197" y="531" type="line"/>
      <point x="23" y="531" type="line"/>
      <point x="222" y="4" type="line"/>
    </contour>
  </outline>
</glyph>
<glyph name="Ustraitstroke-cy" format="2">
  <advance width="600"/>
  <unicode hex="04B0"/>
  <anchor x="300" y="0" name="bottom"/>
  <anchor x="300" y="693" name="top"/>
  <anchor x="-9" y="693" name="topleft"/>
  <outline>
    <contour>
      <point x="499" y="293" type="line"/>
      <point x="199" y="293" type="line"/>
      <point x="101" y="293" type="line"/>
      <point x="101" y="200" type="line"/>
      <point x="383" y="200" type="line"/>
      <point x="499" y="200" type="line"/>
    </contour>
    <component base="Y"/>
  </outline>
</glyph>
<glyph name="ustraitstroke-cy" format="2">
  <advance width="600"/>
  <unicode hex="04B1"/>
  <anchor x="300" y="-222" name="bottom"/>
  <anchor x="300" y="531" name="top"/>
  <outline>
    <contour>
      <point x="474" y="72" type="line"/>
      <point x="127" y="72" type="line"/>
      <point x="127" y="-17" type="line"/>
      <point x="378" y="-17" type="line"/>
      <point x="474" y="-17" type="line"/>
    </contour>
    <component base="ustrait-cy"/>
  </outline>
</glyph>
<glyph name="Tetse-cy" format="2">
  <advance width="600"/>
  <unicode hex="04B4"/>
  <anchor x="300" y="-222" name="bottom"/>
  <anchor x="300" y="693" name="top"/>
  <outline>
    <contour>
      <point x="328" y="693" type="line"/>
      <point x="0" y="693" type="line"/>
      <point x="0" y="586" type="line"/>
      <point x="90" y="586" type="line"/>
      <point x="238" y="586" type="line"/>
      <point x="312" y="586" type="line"/>
    </contour>
    <contour>
      <point x="566" y="123" type="line"/>
      <point x="438" y="123" type="line"/>
      <point x="406" y="0" type="line"/>
      <point x="439" y="0" type="line"/>
      <point x="459" y="-175" type="line"/>
      <point x="566" y="-175" type="line"/>
    </contour>
    <contour>
      <point x="90" y="0" type="line"/>
      <point x="518" y="0" type="line"/>
      <point x="518" y="693" type="line"/>
      <point x="372" y="693" type="line"/>
      <point x="372" y="129" type="line"/>
      <point x="236" y="129" type="line"/>
      <point x="236" y="693" type="line"/>
      <point x="90" y="693" type="line"/>
    </contour>
  </outline>
</glyph>
<glyph name="tetse-cy" format="2">
  <advance width="600"/>
  <unicode hex="04B5"/>
  <anchor x="300" y="-222" name="bottom"/>
  <anchor x="300" y="531" name="top"/>
  <outline>
    <contour>
      <point x="324" y="531" type="line"/>
      <point x="0" y="531" type="line"/>
      <point x="0" y="428" type="line"/>
      <point x="84" y="428" type="line"/>
      <point x="234" y="428" type="line"/>
      <point x="299" y="428" type="line"/>
    </contour>
    <contour>
      <point x="358" y="531" type="line"/>
      <point x="358" y="118" type="line"/>
      <point x="234" y="118" type="line"/>
      <point x="234" y="531" type="line"/>
      <point x="85" y="531" type="line"/>
      <point x="85" y="0" type="line"/>
      <point x="507" y="0" type="line"/>
      <point x="507" y="531" type="line"/>
    </contour>
    <contour>
      <point x="567" y="118" type="line"/>
      <point x="381" y="118" type="line"/>
      <point x="393" y="0" type="line"/>
      <point x="433" y="0" type="line"/>
      <point x="453" y="-175" type="line"/>
      <point x="567" y="-175" type="line"/>
    </contour>
  </outline>
</glyph>
<glyph name="Cheverticalstroke-cy" format="2">
  <advance width="600"/>
  <unicode hex="04B8"/>
  <anchor x="300" y="0" name="bottom"/>
  <anchor x="373" y="0" name="bottomleft"/>
  <anchor x="559" y="0" name="bottomright"/>
  <anchor x="286" y="693" name="top"/>
  <outline>
    <contour>
      <point x="325" y="555" type="line"/>
      <point x="259" y="555" type="line"/>
      <point x="259" y="323" type="line"/>
      <point x="259" y="125" type="line"/>
      <point x="325" y="125" type="line"/>
    </contour>
    <component base="Che-cy"/>
  </outline>
</glyph>
<glyph name="cheverticalstroke-cy" format="2">
  <advance width="600"/>
  <unicode hex="04B9"/>
  <anchor x="300" y="0" name="bottom"/>
  <anchor x="357" y="0" name="bottomleft"/>
  <anchor x="536" y="0" name="bottomright"/>
  <anchor x="287" y="531" name="top"/>
  <outline>
    <contour>
      <point x="314" y="400" type="line"/>
      <point x="254" y="400" type="line"/>
      <point x="254" y="81" type="line"/>
      <point x="314" y="81" type="line"/>
    </contour>
    <component base="che-cy"/>
  </outline>
</glyph>
<glyph name="Shha-cy" format="2">
  <advance width="600"/>
  <unicode hex="04BA"/>
  <anchor x="300" y="0" name="bottom"/>
  <anchor x="586" y="0" name="bottomright"/>
  <anchor x="300" y="693" name="top"/>
  <outline>
    <contour>
      <point x="363" y="471" type="curve" smooth="yes"/>
      <point x="298" y="471"/>
      <point x="246" y="447"/>
      <point x="205" y="412" type="curve"/>
      <point x="208" y="303" type="line"/>
      <point x="230" y="326"/>
      <point x="262" y="348"/>
      <point x="316" y="348" type="curve" smooth="yes"/>
      <point x="383" y="348"/>
      <point x="410" y="317"/>
      <point x="410" y="230" type="curve" smooth="yes"/>
      <point x="410" y="0" type="line"/>
      <point x="576" y="0" type="line"/>
      <point x="576" y="231" type="line" smooth="yes"/>
      <point x="576" y="386"/>
      <point x="504" y="471"/>
    </contour>
    <contour>
      <point x="217" y="693" type="line"/>
      <point x="51" y="693" type="line"/>
      <point x="51" y="0" type="line"/>
      <point x="217" y="0" type="line"/>
    </contour>
  </outline>
</glyph>
<glyph name="kahook-cy" format="2">
  <advance width="600"/>
  <unicode hex="04C4"/>
  <anchor x="300" y="-222" name="bottom"/>
  <anchor x="300" y="531" name="top"/>
  <outline>
    <contour>
      <point x="69" y="0" type="line"/>
      <point x="229" y="0" type="line"/>
      <point x="229" y="207" type="line"/>
      <point x="331" y="207" type="line"/>
      <point x="412" y="269" type="line"/>
      <point x="560" y="531" type="line"/>
      <point x="409" y="531" type="line"/>
      <point x="291" y="313" type="line"/>
      <point x="229" y="313" type="line"/>
      <point x="229" y="531" type="line"/>
      <point x="69" y="531" type="line"/>
    </contour>
    <contour>
      <point x="385" y="0" type="line"/>
      <point x="545" y="0" type="line"/>
      <point x="545" y="146" type="line" smooth="yes"/>
      <point x="545" y="248"/>
      <point x="490" y="306"/>
      <point x="391" y="306" type="curve"/>
      <point x="331" y="207" type="line"/>
      <point x="367" y="207"/>
      <point x="385" y="189"/>
      <point x="385" y="154" type="curve" smooth="yes"/>
    </contour>
    <component base="hookHELPER" xOffset="153"/>
  </outline>
</glyph>
<glyph name="eltail-cy" format="2">
  <advance width="600"/>
  <unicode hex="04C6"/>
  <anchor x="474" y="0" name="_bottom"/>
  <outline>
    <contour>
      <point x="492" y="531" type="line"/>
      <point x="110" y="531" type="line"/>
      <point x="96" y="345" type="line" smooth="yes"/>
      <point x="81" y="152"/>
      <point x="58" y="117"/>
      <point x="7" y="81" type="curve"/>
      <point x="74" y="-20" type="line"/>
      <point x="199" y="41"/>
      <point x="236" y="108"/>
      <point x="248" y="351" type="curve" smooth="yes"/>
      <point x="251" y="414" type="line"/>
      <point x="332" y="414" type="line"/>
      <point x="332" y="0" type="line"/>
      <point x="492" y="0" type="line"/>
    </contour>
    <component base="descTail-cy" xOffset="310"/>
  </outline>
</glyph>
<glyph name="Entail-cy" format="2">
  <advance width="600"/>
  <unicode hex="04C9"/>
  <anchor x="512" y="0" name="_bottom"/>
  <outline>
    <contour>
      <point x="344" y="0" type="line"/>
      <point x="510" y="0" type="line"/>
      <point x="510" y="693" type="line"/>
      <point x="344" y="693" type="line"/>
      <point x="344" y="430" type="line"/>
      <point x="208" y="430" type="line"/>
      <point x="208" y="693" type="line"/>
      <point x="42" y="693" type="line"/>
      <point x="42" y="0" type="line"/>
      <point x="208" y="0" type="line"/>
      <point x="208" y="289" type="line"/>
      <point x="344" y="289" type="line"/>
    </contour>
    <component base="descTail-cy.case" xOffset="348"/>
  </outline>
</glyph>
<glyph name="entail-cy" format="2">
  <advance width="600"/>
  <unicode hex="04CA"/>
  <anchor x="478" y="0" name="_bottom"/>
  <outline>
    <contour>
      <point x="337" y="0" type="line"/>
      <point x="497" y="0" type="line"/>
      <point x="497" y="531" type="line"/>
      <point x="337" y="531" type="line"/>
      <point x="337" y="329" type="line"/>
      <point x="225" y="329" type="line"/>
      <point x="225" y="531" type="line"/>
      <point x="65" y="531" type="line"/>
      <point x="65" y="0" type="line"/>
      <point x="225" y="0" type="line"/>
      <point x="225" y="211" type="line"/>
      <point x="337" y="211" type="line"/>
    </contour>
    <component base="descTail-cy" xOffset="314"/>
  </outline>
</glyph>
<glyph name="chekhakassian-cy" format="2">
  <advance width="600"/>
  <unicode hex="04CC"/>
  <anchor x="359" y="0" name="_bottom"/>
  <anchor x="300" y="-222" name="bottom"/>
  <anchor x="300" y="531" name="top"/>
  <outline>
    <contour>
      <point x="527" y="531" type="line"/>
      <point x="367" y="531" type="line"/>
      <point x="367" y="330" type="line"/>
      <point x="343" y="310"/>
      <point x="308" y="296"/>
      <point x="274" y="296" type="curve" smooth="yes"/>
      <point x="234" y="296"/>
      <point x="207" y="313"/>
      <point x="207" y="363" type="curve" smooth="yes"/>
      <point x="207" y="531" type="line"/>
      <point x="47" y="531" type="line"/>
      <point x="47" y="343" type="line" smooth="yes"/>
      <point x="47" y="242"/>
      <point x="106" y="178"/>
      <point x="215" y="178" type="curve" smooth="yes"/>
      <point x="278" y="178"/>
      <point x="330" y="197"/>
      <point x="367" y="227" type="curve"/>
      <point x="367" y="0" type="line"/>
      <point x="527" y="0" type="line"/>
    </contour>
    <component base="descStraight-cy" xScale="-1" xOffset="673"/>
  </outline>
</glyph>
<glyph name="Gestrokehook-cy" format="2">
  <advance width="600"/>
  <unicode hex="04FA"/>
  <anchor x="242" y="0" name="bottom"/>
  <anchor x="355" y="0" name="bottomright"/>
  <anchor x="402" y="693" name="top"/>
  <outline>
    <contour>
      <point x="193" y="123" type="line"/>
      <point x="193" y="0" type="line"/>
      <point x="399" y="0" type="line"/>
      <point x="399" y="123" type="line"/>
    </contour>
    <component base="Ghestroke-cy" xOffset="45"/>
    <component base="hookHELPER.case" xOffset="1"/>
  </outline>
</glyph>
<glyph name="gestrokehook-cy" format="2">
  <advance width="600"/>
  <unicode hex="04FB"/>
  <anchor x="300" y="-222" name="bottom"/>
  <anchor x="317" y="0" name="bottomright"/>
  <anchor x="300" y="531" name="top"/>
  <outline>
    <contour>
      <point x="189" y="118" type="line"/>
      <point x="189" y="0" type="line"/>
      <point x="375" y="0" type="line"/>
      <point x="375" y="118" type="line"/>
    </contour>
    <component base="ghestroke-cy"/>
    <component base="hookHELPER" xOffset="-17"/>
  </outline>
</glyph>
<glyph name="Hahook-cy" format="2">
  <advance width="600"/>
  <unicode hex="04FC"/>
  <anchor x="296" y="0" name="bottom"/>
  <anchor x="556" y="0" name="bottomright"/>
  <anchor x="296" y="693" name="top"/>
  <outline>
    <contour>
      <point x="419" y="0" type="line"/>
      <point x="610" y="0" type="line"/>
      <point x="610" y="123" type="line"/>
      <point x="419" y="123" type="line"/>
    </contour>
    <component base="X" xOffset="-4"/>
    <component base="hookHELPER.case" xOffset="212"/>
  </outline>
</glyph>
<glyph name="hahook-cy" format="2">
  <advance width="600"/>
  <unicode hex="04FD"/>
  <anchor x="300" y="-222" name="bottom"/>
  <anchor x="509" y="0" name="bottomright"/>
  <anchor x="300" y="531" name="top"/>
  <outline>
    <contour>
      <point x="399" y="118" type="line"/>
      <point x="399" y="0" type="line"/>
      <point x="585" y="0" type="line"/>
      <point x="585" y="118" type="line"/>
    </contour>
    <component base="hookHELPER" xOffset="193"/>
    <component base="x" xOffset="-10"/>
  </outline>
</glyph>
<glyph name="hastroke-cy" format="2">
  <advance width="600"/>
  <unicode hex="04FF"/>
  <anchor x="300" y="0" name="bottom"/>
  <anchor x="300" y="531" name="top"/>
  <outline>
    <contour>
      <point x="194" y="0" type="line"/>
      <point x="298" y="208" type="line"/>
      <point x="398" y="0" type="line"/>
      <point x="579" y="0" type="line"/>
      <point x="396" y="285" type="line"/>
      <point x="552" y="531" type="line"/>
      <point x="384" y="531" type="line"/>
      <point x="298" y="349" type="line"/>
      <point x="215" y="531" type="line"/>
      <point x="38" y="531" type="line"/>
      <point x="203" y="279" type="line"/>
      <point x="21" y="0" type="line"/>
    </contour>
    <component base="hyphen" xScale="1.2" yScale="0.7" xOffset="-60" yOffset="68"/>
  </outline>
</glyph>
<glyph name="Komide-cy" format="2">
  <advance width="600"/>
  <unicode hex="0500"/>
  <anchor x="300" y="0" name="bottom"/>
  <anchor x="300" y="693" name="top"/>
  <outline>
    <contour>
      <point x="301" y="0" type="curve" smooth="yes"/>
      <point x="546" y="0" type="line"/>
      <point x="546" y="693" type="line"/>
      <point x="380" y="693" type="line"/>
      <point x="380" y="460" type="line"/>
      <point x="313" y="460" type="line" smooth="yes"/>
      <point x="134" y="460"/>
      <point x="23" y="378"/>
      <point x="23" y="231" type="curve" smooth="yes"/>
      <point x="23" y="71"/>
      <point x="133" y="0"/>
    </contour>
    <contour>
      <point x="313" y="121" type="line" smooth="yes"/>
      <point x="236" y="121"/>
      <point x="194" y="151"/>
      <point x="194" y="231" type="curve" smooth="yes"/>
      <point x="194" y="305"/>
      <point x="234" y="342"/>
      <point x="319" y="342" type="curve" smooth="yes"/>
      <point x="380" y="342" type="line"/>
      <point x="380" y="121" type="line"/>
    </contour>
  </outline>
</glyph>
<glyph name="Komidzje-cy" format="2">
  <advance width="600"/>
  <unicode hex="0506"/>
  <anchor x="493" y="0" name="_bottom"/>
  <anchor x="300" y="-222" name="bottom"/>
  <anchor x="300" y="693" name="top"/>
  <outline>
    <contour>
      <point x="57" y="693" type="line"/>
      <point x="57" y="577" type="line"/>
      <point x="226" y="577" type="line" smooth="yes"/>
      <point x="302" y="577"/>
      <point x="341" y="548"/>
      <point x="341" y="482" type="curve" smooth="yes"/>
      <point x="341" y="409"/>
      <point x="303" y="378"/>
      <point x="233" y="378" type="curve" smooth="yes"/>
      <point x="87" y="378" type="line"/>
      <point x="87" y="264" type="line"/>
      <point x="218" y="264" type="line"/>
      <point x="367" y="0" type="line"/>
      <point x="555" y="0" type="line"/>
      <point x="374" y="292" type="line"/>
      <point x="451" y="323"/>
      <point x="512" y="383"/>
      <point x="512" y="482" type="curve" smooth="yes"/>
      <point x="512" y="626"/>
      <point x="415" y="693"/>
      <point x="226" y="693" type="curve" smooth="yes"/>
    </contour>
    <component base="descStraight-cy.case" xOffset="174"/>
  </outline>
</glyph>
<glyph name="komidzje-cy" format="2">
  <advance width="600"/>
  <unicode hex="0507"/>
  <anchor x="469" y="0" name="_bottom"/>
  <anchor x="300" y="-222" name="bottom"/>
  <anchor x="300" y="531" name="top"/>
  <outline>
    <contour>
      <point x="117" y="170" type="line"/>
      <point x="299" y="170" type="line"/>
      <point x="432" y="213"/>
      <point x="473" y="270"/>
      <point x="473" y="357" type="curve" smooth="yes"/>
      <point x="473" y="467"/>
      <point x="392" y="531"/>
      <point x="227" y="531" type="curve" smooth="yes"/>
      <point x="74" y="531" type="line"/>
      <point x="73" y="421" type="line"/>
      <point x="229" y="421" type="line" smooth="yes"/>
      <point x="279" y="421"/>
      <point x="309" y="399"/>
      <point x="309" y="354" type="curve" smooth="yes"/>
      <point x="309" y="308"/>
      <point x="283" y="284"/>
      <point x="226" y="284" type="curve" smooth="yes"/>
      <point x="117" y="284" type="line"/>
    </contour>
    <contour>
      <point x="354" y="0" type="line"/>
      <point x="532" y="0" type="line"/>
      <point x="387" y="222" type="line"/>
      <point x="247" y="184" type="line"/>
    </contour>
    <component base="descStraight-cy" xOffset="155"/>
  </outline>
</glyph>
<glyph name="Aleutka-cy" format="2">
  <advance width="600"/>
  <unicode hex="051E"/>
  <anchor x="300" y="0" name="bottom"/>
  <anchor x="571" y="0" name="bottomright"/>
  <anchor x="324" y="693" name="top"/>
  <outline>
    <contour>
      <point x="243" y="567" type="line"/>
      <point x="566" y="420" type="line"/>
      <point x="605" y="505" type="line"/>
      <point x="282" y="652" type="line"/>
    </contour>
    <component base="Ka-cy"/>
  </outline>
</glyph>
<glyph name="aleutka-cy" format="2">
  <advance width="600"/>
  <unicode hex="051F"/>
  <anchor x="300" y="0" name="bottom"/>
  <anchor x="539" y="0" name="bottomright"/>
  <anchor x="300" y="531" name="top"/>
  <outline>
    <contour>
      <point x="268" y="425" type="line"/>
      <point x="540" y="301" type="line"/>
      <point x="576" y="378" type="line"/>
      <point x="304" y="502" type="line"/>
    </contour>
    <component base="ka-cy" xOffset="1"/>
  </outline>
</glyph>
<glyph name="Shhadescender-cy" format="2">
  <advance width="600"/>
  <unicode hex="0526"/>
  <anchor x="531" y="0" name="_bottom"/>
  <outline>
    <contour>
      <point x="353" y="471" type="curve" smooth="yes"/>
      <point x="298" y="471"/>
      <point x="246" y="447"/>
      <point x="205" y="412" type="curve"/>
      <point x="208" y="303" type="line"/>
      <point x="230" y="326"/>
      <point x="262" y="348"/>
      <point x="306" y="348" type="curve" smooth="yes"/>
      <point x="363" y="348"/>
      <point x="390" y="317"/>
      <point x="390" y="230" type="curve" smooth="yes"/>
      <point x="390" y="0" type="line"/>
      <point x="556" y="0" type="line"/>
      <point x="556" y="231" type="line" smooth="yes"/>
      <point x="556" y="386"/>
      <point x="484" y="471"/>
    </contour>
    <contour>
      <point x="217" y="693" type="line"/>
      <point x="51" y="693" type="line"/>
      <point x="51" y="0" type="line"/>
      <point x="217" y="0" type="line"/>
    </contour>
    <component base="descStraight-cy.case" xOffset="212"/>
  </outline>
</glyph>
<glyph name="dzzhe-cy" format="2">
  <advance width="600"/>
  <unicode hex="052B"/>
  <anchor x="300" y="-222" name="bottom"/>
  <anchor x="300" y="531" name="top"/>
  <outline>
    <contour>
      <point x="-16" y="-175" type="line"/>
      <point x="66" y="-175" type="line"/>
      <point x="79" y="0" type="line"/>
      <point x="106" y="0" type="line"/>
      <point x="121" y="98" type="line"/>
      <point x="-16" y="98" type="line"/>
    </contour>
    <contour>
      <point x="277" y="-175" type="line"/>
      <point x="359" y="-175" type="line"/>
      <point x="359" y="98" type="line"/>
      <point x="221" y="98" type="line"/>
      <point x="236" y="0" type="line"/>
      <point x="263" y="0" type="line"/>
    </contour>
    <contour>
      <point x="104" y="98" type="line"/>
      <point x="139" y="147"/>
      <point x="156" y="199"/>
      <point x="162" y="367" type="curve" smooth="yes"/>
      <point x="165" y="450" type="line"/>
      <point x="205" y="450" type="line"/>
      <point x="205" y="98" type="line"/>
    </contour>
    <contour>
      <point x="14" y="0" type="line"/>
      <point x="298" y="0" type="line"/>
      <point x="298" y="531" type="line"/>
      <point x="70" y="531" type="line"/>
      <point x="58" y="361" type="line" smooth="yes"/>
      <point x="47" y="199"/>
      <point x="38" y="143"/>
      <point x="14" y="98" type="curve"/>
    </contour>
    <contour>
      <point x="270" y="232" type="line"/>
      <point x="343" y="232" type="line"/>
      <point x="343" y="0" type="line"/>
      <point x="432" y="0" type="line"/>
      <point x="432" y="232" type="line"/>
      <point x="454" y="232" type="line"/>
      <point x="516" y="0" type="line"/>
      <point x="616" y="0" type="line"/>
      <point x="533" y="285" type="line"/>
      <point x="613" y="531" type="line"/>
      <point x="517" y="531" type="line"/>
      <point x="456" y="320" type="line"/>
      <point x="432" y="320" type="line"/>
      <point x="432" y="531" type="line"/>
      <point x="343" y="531" type="line"/>
      <point x="343" y="320" type="line"/>
      <point x="269" y="320" type="line"/>
    </contour>
  </outline>
</glyph>
<glyph name="psilivaria" format="2">
  <advance width="600"/>
  <unicode hex="1FCD"/>
  <anchor x="295" y="531" name="_top"/>
  <anchor x="503" y="833" name="_topleft"/>
  <anchor x="220" y="838" name="top"/>
  <outline>
    <contour>
      <point x="432" y="837" type="line"/>
      <point x="298" y="802" type="line"/>
      <point x="385" y="581" type="line"/>
      <point x="473" y="600" type="line"/>
    </contour>
    <component base="psili" xOffset="-102" yOffset="-2"/>
  </outline>
</glyph>
<glyph name="psilioxia" format="2">
  <advance width="600"/>
  <unicode hex="1FCE"/>
  <anchor x="251" y="531" name="_top"/>
  <anchor x="501" y="833" name="_topleft"/>
  <anchor x="273" y="836" name="top"/>
  <outline>
    <contour>
      <point x="339" y="837" type="line"/>
      <point x="298" y="600" type="line"/>
      <point x="386" y="581" type="line"/>
      <point x="473" y="802" type="line"/>
    </contour>
    <component base="psili" xOffset="-102" yOffset="-2"/>
  </outline>
</glyph>
<glyph name="psiliperispomeni" format="2">
  <advance width="600"/>
  <unicode hex="1FCF"/>
  <anchor x="273" y="531" name="_top"/>
  <anchor x="483" y="938" name="_topleft"/>
  <anchor x="284" y="953" name="top"/>
  <outline>
    <contour>
      <point x="236" y="581" type="line"/>
      <point x="311" y="581" type="line"/>
      <point x="336" y="625" type="line" smooth="yes"/>
      <point x="357" y="662"/>
      <point x="365" y="683"/>
      <point x="365" y="709" type="curve" smooth="yes"/>
      <point x="365" y="753"/>
      <point x="332" y="787"/>
      <point x="286" y="787" type="curve" smooth="yes"/>
      <point x="239" y="787"/>
      <point x="206" y="752"/>
      <point x="206" y="709" type="curve" smooth="yes"/>
      <point x="206" y="679"/>
      <point x="220" y="658"/>
      <point x="250" y="642" type="curve"/>
    </contour>
    <component base="perispomeni" xOffset="-13" yOffset="160"/>
  </outline>
</glyph>
<glyph name="dasiavaria" format="2">
  <advance width="600"/>
  <unicode hex="1FDD"/>
  <anchor x="321" y="531" name="_top"/>
  <anchor x="503" y="833" name="_topleft"/>
  <anchor x="323" y="836" name="top"/>
  <outline>
    <contour>
      <point x="432" y="837" type="line"/>
      <point x="298" y="802" type="line"/>
      <point x="385" y="581" type="line"/>
      <point x="473" y="600" type="line"/>
    </contour>
    <component base="dasia" xOffset="-102" yOffset="-2"/>
  </outline>
</glyph>
<glyph name="dasiaoxia" format="2">
  <advance width="600"/>
  <unicode hex="1FDE"/>
  <anchor x="285" y="531" name="_top"/>
  <anchor x="501" y="833" name="_topleft"/>
  <anchor x="305" y="838" name="top"/>
  <outline>
    <contour>
      <point x="339" y="837" type="line"/>
      <point x="298" y="600" type="line"/>
      <point x="386" y="581" type="line"/>
      <point x="473" y="802" type="line"/>
    </contour>
    <component base="dasia" xOffset="-102" yOffset="-2"/>
  </outline>
</glyph>
<glyph name="dasiaperispomeni" format="2">
  <advance width="600"/>
  <unicode hex="1FDF"/>
  <anchor x="297" y="531" name="_top"/>
  <anchor x="497" y="938" name="_topleft"/>
  <anchor x="299" y="953" name="top"/>
  <outline>
    <contour>
      <point x="347" y="581" type="line"/>
      <point x="335" y="643" type="line"/>
      <point x="363" y="658"/>
      <point x="377" y="679"/>
      <point x="377" y="709" type="curve" smooth="yes"/>
      <point x="377" y="752"/>
      <point x="344" y="787"/>
      <point x="297" y="787" type="curve" smooth="yes"/>
      <point x="251" y="787"/>
      <point x="218" y="754"/>
      <point x="218" y="709" type="curve" smooth="yes"/>
      <point x="218" y="683"/>
      <point x="226" y="663"/>
      <point x="248" y="625" type="curve" smooth="yes"/>
      <point x="272" y="581" type="line"/>
    </contour>
    <component base="perispomeni" yOffset="161"/>
  </outline>
</glyph>
<glyph name="dasia" format="2">
  <advance width="600"/>
  <unicode hex="1FFE"/>
  <anchor x="342" y="531" name="_top"/>
  <anchor x="427" y="823" name="_topleft"/>
  <anchor x="312" y="838" name="top"/>
  <outline>
    <contour>
      <point x="299" y="840" type="curve" smooth="yes"/>
      <point x="254" y="840"/>
      <point x="220" y="807"/>
      <point x="220" y="762" type="curve" smooth="yes"/>
      <point x="220" y="738"/>
      <point x="229" y="709"/>
      <point x="244" y="679" type="curve" smooth="yes"/>
      <point x="293" y="582" type="line"/>
      <point x="373" y="582" type="line"/>
      <point x="346" y="697" type="line"/>
      <point x="365" y="712"/>
      <point x="379" y="733"/>
      <point x="379" y="762" type="curve" smooth="yes"/>
      <point x="379" y="805"/>
      <point x="345" y="840"/>
    </contour>
  </outline>
</glyph>
<glyph name="tironiansignet" format="2">
  <advance width="600"/>
  <unicode hex="204A"/>
  <outline>
    <contour>
      <point x="265" y="-238" type="line"/>
      <point x="523" y="423" type="line"/>
      <point x="523" y="531" type="line"/>
      <point x="57" y="531" type="line"/>
      <point x="57" y="411" type="line"/>
      <point x="361" y="411" type="line"/>
      <point x="113" y="-191" type="line"/>
    </contour>
  </outline>
</glyph>
<glyph name="SF110000" format="2">
  <advance width="600"/>
  <unicode hex="2502"/>
  <outline>
    <contour>
      <point x="340" y="1000" type="line"/>
      <point x="260" y="1000" type="line"/>
      <point x="260" y="-500" type="line"/>
      <point x="340" y="-500" type="line"/>
    </contour>
  </outline>
</glyph>
<glyph name="boxHeavyDownAndRight" format="2">
  <advance width="600"/>
  <unicode hex="250F"/>
  <outline>
    <contour>
      <point x="605" y="470" type="line"/>
      <point x="180" y="470" type="line"/>
      <point x="180" y="-500" type="line"/>
      <point x="420" y="-500" type="line"/>
      <point x="420" y="230" type="line"/>
      <point x="605" y="230" type="line"/>
    </contour>
  </outline>
</glyph>
<glyph name="boxLeftHeavyAndRightUpLight" format="2">
  <advance width="600"/>
  <unicode hex="2535"/>
  <outline>
    <contour>
      <point x="340" y="1000" type="line"/>
      <point x="260" y="1000" type="line"/>
      <point x="260" y="470" type="line"/>
      <point x="-5" y="470" type="line"/>
      <point x="-5" y="230" type="line"/>
      <point x="340" y="230" type="line"/>
      <point x="340" y="310" type="line"/>
      <point x="605" y="310" type="line"/>
      <point x="605" y="390" type="line"/>
      <point x="340" y="390" type="line"/>
    </contour>
  </outline>
</glyph>
<glyph name="boxHeavyVerticalAndHorizontal" format="2">
  <advance width="600"/>
  <unicode hex="254B"/>
  <outline>
    <contour>
      <point x="420" y="1000" type="line"/>
      <point x="180" y="1000" type="line"/>
      <point x="180" y="470" type="line"/>
      <point x="-5" y="470" type="line"/>
      <point x="-5" y="230" type="line"/>
      <point x="180" y="230" type="line"/>
      <point x="180" y="-500" type="line"/>
      <point x="420" y="-500" type="line"/>
      <point x="420" y="230" type="line"/>
      <point x="605" y="230" type="line"/>
      <point x="605" y="470" type="line"/>
      <point x="420" y="470" type="line"/>
    </contour>
  </outline>
</glyph>
<glyph name="SF430000" format="2">
  <advance width="600"/>
  <unicode hex="2550"/>
  <outline>
    <contour>
      <point x="605" y="470" type="line"/>
      <point x="-5" y="470" type="line"/>
      <point x="-5" y="390" type="line"/>
      <point x="605" y="390" type="line"/>
    </contour>
    <contour>
      <point x="605" y="310" type="line"/>
      <point x="-5" y="310" type="line"/>
      <point x="-5" y="230" type="line"/>
      <point x="605" y="230" type="line"/>
    </contour>
  </outline>
</glyph>
<glyph name="SF210000" format="2">
  <advance width="600"/>
  <unicode hex="2556"/>
  <outline>
    <contour>
      <point x="420" y="390" type="line"/>
      <point x="-5" y="390" type="line"/>
      <point x="-5" y="310" type="line"/>
      <point x="180" y="310" type="line"/>
      <point x="180" y="-500" type="line"/>
      <point x="260" y="-500" type="line"/>
      <point x="260" y="310" type="line"/>
      <point x="340" y="310" type="line"/>
      <point x="340" y="-500" type="line"/>
      <point x="420" y="-500" type="line"/>
    </contour>
  </outline>
</glyph>
<glyph name="SF250000" format="2">
  <advance width="600"/>
  <unicode hex="2557"/>
  <outline>
    <contour>
      <point x="420" y="470" type="line"/>
      <point x="-5" y="470" type="line"/>
      <point x="-5" y="390" type="line"/>
      <point x="340" y="390" type="line"/>
      <point x="340" y="-500" type="line"/>
      <point x="420" y="-500" type="line"/>
    </contour>
    <contour>
      <point x="260" y="310" type="line"/>
      <point x="-5" y="310" type="line"/>
      <point x="-5" y="230" type="line"/>
      <point x="180" y="230" type="line"/>
      <point x="180" y="-500" type="line"/>
      <point x="260" y="-500" type="line"/>
    </contour>
  </outline>
</glyph>
<glyph name="leftThreeEighthsBlock" format="2">
  <advance width="600"/>
  <unicode hex="258D"/>
  <outline>
    <contour>
      <point x="225" y="1000" type="line"/>
      <point x="0" y="1000" type="line"/>
      <point x="0" y="-500" type="line"/>
      <point x="225" y="-500" type="line"/>
    </contour>
  </outline>
</glyph>
<glyph name="leftOneEighthBlock" format="2">
  <advance width="600"/>
  <unicode hex="258F"/>
  <outline>
    <contour>
      <point x="75" y="1000" type="line"/>
      <point x="0" y="1000" type="line"/>
      <point x="0" y="-500" type="line"/>
      <point x="75" y="-500" type="line"/>
    </contour>
  </outline>
</glyph>
<glyph name="rightOneEighthBlock" format="2">
  <advance width="600"/>
  <unicode hex="2595"/>
  <outline>
    <contour>
      <point x="600" y="1000" type="line"/>
      <point x="525" y="1000" type="line"/>
      <point x="525" y="-500" type="line"/>
      <point x="600" y="-500" type="line"/>
    </contour>
  </outline>
</glyph>
<glyph name="upperLeftDiagonalHalfBlackSquare" format="2">
  <advance width="600"/>
  <unicode hex="25E9"/>
  <outline>
    <contour>
      <point x="570" y="540" type="line"/>
      <point x="30" y="540" type="line"/>
      <point x="30" y="0" type="line"/>
      <point x="570" y="0" type="line"/>
    </contour>
    <contour>
      <point x="490" y="460" type="line"/>
      <point x="490" y="80" type="line"/>
      <point x="110" y="80" type="line"/>
    </contour>
  </outline>
</glyph>
<glyph name="TseHelper-cy" format="2">
  <advance width="600"/>
  <anchor x="300" y="0" name="bottom"/>
  <anchor x="559" y="0" name="bottomright"/>
  <outline>
    <contour>
      <point x="51" y="0" type="line"/>
      <point x="549" y="0" type="line"/>
      <point x="549" y="693" type="line"/>
      <point x="383" y="693" type="line"/>
      <point x="383" y="129" type="line"/>
      <point x="217" y="129" type="line"/>
      <point x="217" y="693" type="line"/>
      <point x="51" y="693" type="line"/>
    </contour>
  </outline>
</glyph>
<glyph name="acute.case.loclPLK" format="2">
  <advance width="600"/>
  <anchor x="262" y="693" name="_top"/>
  <outline>
    <contour>
      <point x="289" y="974" type="line"/>
      <point x="188" y="788" type="line"/>
      <point x="265" y="739" type="line"/>
      <point x="413" y="896" type="line"/>
    </contour>
  </outline>
</glyph>
<glyph name="acute.loclPLK" format="2">
  <advance width="600"/>
  <anchor x="262" y="531" name="_top"/>
  <outline>
    <contour>
      <point x="289" y="826" type="line"/>
      <point x="188" y="630" type="line"/>
      <point x="265" y="581" type="line"/>
      <point x="413" y="748" type="line"/>
    </contour>
  </outline>
</glyph>
<glyph name="caron.alt" format="2">
  <advance width="600"/>
  <anchor x="220" y="689" name="_topright"/>
  <outline>
    <contour>
      <point x="263" y="711" type="line"/>
      <point x="225" y="477" type="line"/>
      <point x="325" y="461" type="line"/>
      <point x="403" y="694" type="line"/>
    </contour>
  </outline>
</glyph>
<glyph name="caron.case" format="2">
  <advance width="600"/>
  <anchor x="300" y="693" name="_top"/>
  <outline>
    <contour>
      <point x="433" y="947" type="line"/>
      <point x="300" y="862" type="line"/>
      <point x="167" y="947" type="line"/>
      <point x="109" y="882" type="line"/>
      <point x="251" y="751" type="line"/>
      <point x="349" y="751" type="line"/>
      <point x="490" y="882" type="line"/>
    </contour>
  </outline>
</glyph>
<glyph name="circumflex.case" format="2">
  <advance width="600"/>
  <anchor x="300" y="693" name="_top"/>
  <outline>
    <contour>
      <point x="349" y="944" type="line"/>
      <point x="251" y="944" type="line"/>
      <point x="109" y="813" type="line"/>
      <point x="167" y="748" type="line"/>
      <point x="300" y="833" type="line"/>
      <point x="433" y="748" type="line"/>
      <point x="490" y="813" type="line"/>
    </contour>
  </outline>
</glyph>
<glyph name="descStraight-cy.case" format="2">
  <advance width="600"/>
  <anchor x="319" y="0" name="_bottom"/>
  <anchor x="152" y="0" name="_bottomleft"/>
  <anchor x="354" y="0" name="_bottomright"/>
  <outline>
    <contour>
      <point x="392" y="123" type="line"/>
      <point x="254" y="123" type="line"/>
      <point x="212" y="0" type="line"/>
      <point x="245" y="0" type="line"/>
      <point x="265" y="-175" type="line"/>
      <point x="392" y="-175" type="line"/>
    </contour>
  </outline>
</glyph>
<glyph name="descStraight-cy" format="2">
  <advance width="600"/>
  <anchor x="314" y="0" name="_bottom"/>
  <anchor x="137" y="0" name="_bottomleft"/>
  <anchor x="322" y="0" name="_bottomright"/>
  <outline>
    <contour>
      <point x="382" y="118" type="line"/>
      <point x="180" y="118" type="line"/>
      <point x="202" y="0" type="line"/>
      <point x="242" y="0" type="line"/>
      <point x="262" y="-175" type="line"/>
      <point x="382" y="-175" type="line"/>
    </contour>
  </outline>
</glyph>
<glyph name="descTail-cy.case" format="2">
  <advance width="600"/>
  <anchor x="164" y="0" name="_bottom"/>
  <anchor x="-43" y="0" name="_bottomleft"/>
  <anchor x="172" y="0" name="_bottomright"/>
  <outline>
    <contour>
      <point x="252" y="154" type="line"/>
      <point x="30" y="154" type="line"/>
      <point x="32" y="0" type="line"/>
      <point x="55" y="0" type="line"/>
      <point x="15" y="-175" type="line"/>
      <point x="152" y="-175" type="line"/>
    </contour>
  </outline>
</glyph>
<glyph name="descTail-cy" format="2">
  <advance width="600"/>
  <anchor x="164" y="0" name="_bottom"/>
  <anchor x="177" y="0" name="_bottomleft"/>
  <anchor x="172" y="0" name="_bottomright"/>
  <outline>
    <contour>
      <point x="282" y="142" type="line"/>
      <point x="30" y="142" type="line"/>
      <point x="52" y="0" type="line"/>
      <point x="92" y="0" type="line"/>
      <point x="52" y="-175" type="line"/>
      <point x="182" y="-175" type="line"/>
    </contour>
  </outline>
</glyph>
<glyph name="grave.case" format="2">
  <advance width="600"/>
  <anchor x="305" y="693" name="_top"/>
  <outline>
    <contour>
      <point x="227" y="954" type="line"/>
      <point x="167" y="835" type="line"/>
      <point x="405" y="751" type="line"/>
      <point x="443" y="832" type="line"/>
    </contour>
  </outline>
</glyph>
<glyph name="tonos.case" format="2">
  <advance width="600"/>
  <anchor x="411" y="693" name="_topleft"/>
  <outline>
    <contour>
      <point x="243" y="725" type="line"/>
      <point x="205" y="484" type="line"/>
      <point x="307" y="466" type="line"/>
      <point x="395" y="693" type="line"/>
    </contour>
  </outline>
</glyph>
<glyph name="tsehelper-cy" format="2">
  <advance width="600"/>
  <anchor x="300" y="0" name="bottom"/>
  <anchor x="541" y="0" name="bottomright"/>
  <outline>
    <contour>
      <point x="372" y="531" type="line"/>
      <point x="372" y="118" type="line"/>
      <point x="228" y="118" type="line"/>
      <point x="228" y="531" type="line"/>
      <point x="69" y="531" type="line"/>
      <point x="69" y="0" type="line"/>
      <point x="531" y="0" type="line"/>
      <point x="531" y="531" type="line"/>
    </contour>
  </outline>
</glyph>
<glyph name="varia.case" format="2">
  <advance width="600"/>
  <anchor x="411" y="693" name="_topleft"/>
  <outline>
    <contour>
      <point x="347" y="725" type="line"/>
      <point x="195" y="693" type="line"/>
      <point x="283" y="466" type="line"/>
      <point x="385" y="484" type="line"/>
    </contour>
  </outline>
</glyph>
